<?xml version="1.0" standalone="no"?>
<!DOCTYPE svg PUBLIC "-//W3C//DTD SVG 20010904//EN"
 "http://www.w3.org/TR/2001/REC-SVG-20010904/DTD/svg10.dtd">
<svg version="1.0" xmlns="http://www.w3.org/2000/svg"
 width="1024.000000pt" height="1024.000000pt" viewBox="0 0 1024.000000 1024.000000"
 preserveAspectRatio="xMidYMid meet">
<metadata>
Created by potrace 1.14, written by Peter Selinger 2001-2017
</metadata>
<g transform="translate(0.000000,1024.000000) scale(0.100000,-0.100000)"
fill="#000000" stroke="none">
<path d="M96 10228 c13 -22 210 -252 241 -281 37 -35 78 -46 121 -35 66 18
460 216 471 236 14 26 14 42 1 42 -5 0 -10 -6 -10 -13 0 -8 -8 -21 -18 -29
-30 -27 -433 -210 -474 -216 -38 -5 -41 -3 -126 85 -48 50 -109 120 -137 156
-27 36 -56 66 -63 66 -8 1 -10 -4 -6 -11z"/>
<path d="M3055 10164 c-988 -491 -1430 -704 -1464 -704 -29 0 -48 9 -80 37
-60 51 -416 447 -449 499 -27 44 -42 55 -42 31 0 -30 470 -560 516 -582 18 -8
43 -15 56 -15 13 0 226 100 473 221 492 242 854 419 1040 510 146 70 159 79
125 78 -14 0 -92 -34 -175 -75z"/>
<path d="M3370 10161 c-85 -42 -252 -123 -370 -180 -414 -199 -1223 -599
-2105 -1041 l-890 -446 -1 -177 c-1 -97 0 -177 3 -177 2 0 27 10 54 21 47 20
63 38 37 40 -7 0 5 6 27 13 41 14 157 69 230 109 22 12 48 21 58 19 9 -2 17 1
17 7 0 6 6 11 14 11 8 0 22 7 30 16 9 8 20 13 25 10 5 -3 11 1 15 9 3 8 12 15
21 15 8 0 15 4 15 10 0 5 10 14 21 21 17 9 23 8 30 -2 7 -11 9 -10 9 4 0 9 5
17 10 17 6 0 10 -4 10 -9 0 -5 25 4 56 20 69 35 78 43 39 33 -16 -4 -36 -14
-43 -21 -8 -8 -22 -11 -33 -8 -10 3 -28 1 -39 -5 -12 -7 -24 -9 -27 -7 -9 10
42 31 70 29 15 -1 27 1 27 6 0 4 24 16 53 26 28 10 80 31 114 47 34 17 65 29
69 29 3 -1 12 7 19 17 13 17 14 17 20 1 4 -9 4 -21 1 -26 -3 -5 -203 -107
-443 -226 -241 -119 -454 -225 -473 -236 l-35 -19 -2 -2445 c-2 -1345 0 -2452
3 -2460 3 -9 13 -16 22 -16 13 0 12 -3 -4 -15 -18 -15 -18 -15 9 -9 38 9 34
-11 -5 -24 l-33 -12 42 4 c48 4 83 -19 41 -27 -16 -3 -13 -5 12 -6 27 -1 31
-4 20 -11 -11 -7 -11 -10 -2 -10 7 0 10 -4 7 -10 -3 -5 0 -8 7 -5 7 3 24 -11
37 -31 21 -30 22 -37 10 -45 -11 -8 -10 -9 6 -5 16 4 52 -38 202 -239 132
-177 178 -246 170 -254 -8 -8 -5 -11 11 -11 12 0 22 -4 22 -8 0 -5 11 -22 25
-38 14 -16 25 -32 25 -36 0 -4 13 -21 30 -38 33 -34 37 -45 18 -54 -7 -3 -4
-4 7 -1 27 6 65 -43 44 -56 -11 -7 -9 -9 7 -9 12 0 26 -11 35 -27 8 -16 20
-33 28 -39 8 -6 11 -16 7 -22 -4 -7 -1 -12 8 -12 19 0 21 -16 4 -23 -7 -3 -3
-6 8 -6 35 -2 39 -33 8 -58 -16 -12 -26 -25 -23 -28 3 -3 16 4 29 15 13 11 28
19 34 17 20 -7 15 -23 -11 -40 -17 -11 -20 -16 -8 -12 47 17 65 17 65 2 0 -9
-8 -18 -17 -20 -10 -3 -5 -5 12 -6 17 0 38 -10 48 -21 9 -11 13 -20 9 -20 -4
0 0 -5 8 -10 13 -9 13 -11 0 -21 -12 -8 -11 -9 7 -4 16 4 23 1 28 -15 3 -11
11 -20 16 -20 6 0 8 -9 4 -20 -4 -14 -2 -18 7 -15 8 3 34 -22 65 -62 29 -38
75 -97 102 -133 28 -36 51 -71 51 -77 0 -7 7 -13 15 -13 8 0 15 -4 15 -10 0
-24 26 -5 103 73 225 227 374 346 622 497 39 24 97 68 130 98 33 30 89 69 124
86 87 40 200 43 273 8 97 -48 149 -138 156 -271 3 -56 1 -82 -6 -77 -5 3 -13
-5 -16 -19 -4 -14 -11 -25 -16 -25 -6 0 -10 -8 -10 -17 0 -9 -3 -13 -7 -10 -4
4 -15 -10 -24 -30 -10 -21 -18 -34 -19 -29 0 6 -9 0 -20 -12 -13 -13 -26 -19
-37 -15 -10 4 -14 2 -9 -5 3 -6 2 -13 -4 -17 -6 -4 -8 -11 -5 -16 3 -5 -1 -6
-9 -3 -10 4 -16 1 -16 -7 0 -8 -20 -27 -44 -43 -27 -18 -42 -35 -39 -43 3 -8
1 -13 -4 -11 -11 3 -73 -59 -73 -72 0 -4 -7 -10 -15 -14 -8 -3 -15 -12 -15
-21 0 -8 -5 -15 -11 -15 -5 0 -7 -4 -4 -10 3 -5 1 -10 -4 -10 -6 0 -11 -7 -11
-15 0 -8 -7 -15 -15 -15 -10 0 -15 -10 -15 -29 0 -30 -29 -91 -43 -91 -5 0 -5
-5 -2 -11 8 -13 -31 -52 -44 -44 -5 3 -7 -4 -4 -15 3 -12 0 -20 -7 -20 -7 0
-10 -7 -6 -15 3 -8 2 -15 -2 -15 -4 0 -18 -16 -31 -35 -13 -19 -30 -35 -37
-35 -8 0 -14 -6 -14 -12 0 -7 -21 -35 -48 -63 -26 -27 -46 -53 -45 -57 2 -4
-4 -5 -12 -2 -10 4 -15 0 -15 -11 0 -9 -5 -13 -10 -10 -6 3 -13 -2 -17 -12 -4
-10 -17 -34 -29 -54 l-23 -36 25 -79 c21 -64 27 -114 36 -264 13 -243 5 -391
-28 -504 -8 -27 -14 -53 -14 -58 0 -4 373 -8 830 -8 l829 0 17 33 c22 44 54
77 74 77 9 0 25 9 36 21 10 11 14 20 9 19 -22 -5 -35 1 -35 14 0 8 -6 17 -12
19 -10 4 -9 8 2 16 8 6 10 11 4 11 -14 0 -25 48 -13 56 14 8 11 35 -3 33 -34
-4 -78 2 -90 14 -36 33 -98 77 -109 77 -7 0 -34 22 -61 50 -26 27 -55 50 -64
50 -11 0 -14 6 -9 20 5 16 2 20 -15 20 -13 0 -20 5 -18 12 3 7 -3 21 -13 31
-10 11 -28 48 -40 83 -21 59 -42 80 -51 52 -3 -8 -20 -8 -66 2 -34 8 -62 18
-62 22 0 4 -9 8 -19 8 -11 0 -26 7 -34 15 -12 11 -16 12 -20 2 -2 -7 -8 -3
-16 11 -6 12 -18 22 -26 22 -8 0 -15 5 -15 10 0 6 -3 9 -7 8 -14 -4 -73 32
-73 45 0 9 -2 9 -8 -1 -7 -9 -15 -6 -36 13 -15 14 -29 25 -31 25 -2 0 -6 -14
-10 -30 -4 -17 -11 -28 -16 -24 -5 3 -9 -1 -9 -8 0 -9 -3 -9 -10 2 -8 12 -10
10 -10 -9 0 -24 0 -24 -16 -5 -15 19 -16 19 -10 -1 6 -20 6 -20 -9 -1 -8 11
-15 16 -15 10 0 -5 -7 -1 -14 9 -14 17 -15 17 -22 -5 l-7 -23 -9 25 c-7 20
-11 22 -18 10 -6 -9 -10 -10 -10 -3 0 6 -13 16 -30 22 -16 5 -30 15 -30 20 0
6 -9 11 -20 11 -11 0 -20 5 -20 11 0 6 -13 27 -30 46 -29 32 -41 61 -21 48 6
-3 7 9 4 31 -5 28 -3 35 6 29 10 -6 11 -3 1 15 -8 15 -8 20 -1 16 6 -4 11 0
11 8 0 9 11 23 26 32 14 9 23 23 20 30 -3 9 2 14 12 15 9 0 -5 11 -33 24 -87
41 -47 32 225 -51 228 -70 350 -136 476 -256 l61 -58 70 69 c162 159 348 193
512 93 34 -20 105 -80 159 -132 l97 -95 120 -43 c274 -99 315 -121 388 -201
71 -80 127 -203 127 -283 0 -26 -2 -27 -27 -18 -26 9 -26 9 -9 -4 10 -8 15
-19 12 -25 -4 -5 3 -19 14 -29 16 -15 23 -38 28 -88 l7 -69 1514 -3 1515 -2
24 22 c19 17 24 19 19 6 -10 -29 5 -28 42 2 19 17 42 30 49 30 7 0 10 5 7 10
-3 6 1 10 10 10 9 0 26 9 37 20 12 11 41 29 64 41 24 11 45 26 48 32 3 9 5 9
5 0 1 -7 6 -13 11 -13 6 0 10 8 8 17 -2 13 4 18 22 19 41 2 46 4 32 13 -11 7
-10 9 3 14 9 4 13 3 10 -3 -10 -17 6 -11 108 38 53 26 97 44 97 40 0 -4 -19
-17 -42 -29 -24 -12 -43 -21 -43 -19 0 1 -24 -12 -54 -30 -30 -17 -91 -50
-135 -72 -45 -22 -107 -58 -139 -80 -31 -21 -57 -35 -57 -31 0 4 -4 3 -8 -3
-4 -6 -16 -16 -27 -22 -20 -11 -19 -11 2 -12 12 0 53 20 90 44 37 24 124 72
193 106 69 35 158 83 197 107 40 23 78 43 85 43 7 0 38 16 68 34 30 19 59 32
65 29 5 -4 7 -2 3 2 -5 5 20 24 55 43 34 19 64 38 67 42 5 8 80 31 80 25 0 -1
-67 -44 -150 -96 -82 -51 -148 -95 -145 -97 5 -5 97 44 165 89 77 50 140 82
140 68 0 -12 -25 -39 -37 -39 -12 0 -113 -94 -113 -105 0 -5 15 5 33 21 69 66
171 119 202 108 18 -7 19 -21 3 -27 -9 -3 -8 -10 6 -23 13 -14 17 -15 14 -4
-6 18 96 85 114 74 8 -5 9 -2 5 9 -3 10 -3 17 2 17 4 0 28 14 54 31 26 17 51
28 57 24 6 -4 9 -2 8 3 -2 6 2 11 7 12 6 1 17 8 26 16 10 9 24 12 34 8 14 -6
16 -4 10 6 -6 9 -4 11 5 5 7 -5 20 2 34 17 11 14 31 30 43 37 19 10 22 9 17
-4 -4 -8 -11 -15 -16 -15 -5 0 -22 -11 -36 -24 -76 -69 -89 -80 -110 -94 -12
-8 -25 -12 -28 -9 -3 3 4 8 15 12 19 6 30 25 15 25 -15 0 -124 -55 -124 -62 0
-5 9 -4 21 2 11 7 23 10 25 7 3 -2 -9 -10 -26 -17 -16 -7 -30 -17 -30 -22 0
-5 9 -4 21 2 23 13 59 21 59 14 0 -11 -70 -33 -86 -27 -11 4 -15 2 -11 -4 4
-6 -7 -16 -26 -23 -82 -31 -122 -57 -119 -76 2 -15 1 -16 -7 -4 -8 12 -12 12
-29 -4 -11 -9 -22 -14 -24 -9 -3 4 -4 3 -2 -3 1 -6 -8 -16 -19 -23 -18 -11
-20 -11 -9 0 21 23 13 33 -10 12 -30 -27 -66 -45 -77 -38 -5 3 -7 -4 -4 -15 4
-13 -1 -26 -13 -36 -18 -14 -18 -14 6 -12 14 2 26 10 26 18 1 8 2 20 3 26 1
14 50 36 62 28 6 -3 26 6 45 21 19 15 38 24 41 21 10 -10 33 15 26 28 -3 6 -3
8 2 4 4 -4 20 1 35 12 16 11 31 20 35 20 16 0 155 71 162 83 9 14 105 67 122
67 7 0 60 23 119 52 133 64 132 64 104 41 -12 -10 -66 -38 -120 -62 -53 -24
-109 -52 -124 -63 -16 -11 -28 -16 -28 -11 0 4 -4 3 -8 -3 -18 -26 -327 -211
-340 -204 -8 5 -62 -24 -62 -32 0 -5 -5 -6 -10 -3 -6 4 -24 -7 -40 -24 -35
-34 -84 -71 -96 -71 -4 0 -3 5 4 12 19 19 14 30 -9 18 -11 -7 -23 -9 -26 -6
-3 3 -42 -18 -87 -46 -44 -29 -102 -62 -128 -75 -27 -13 -48 -26 -48 -29 0
-14 57 10 112 47 33 21 63 39 67 39 5 0 20 10 35 21 15 12 30 19 33 15 3 -3
12 -1 19 5 7 6 15 6 18 1 3 -5 -42 -33 -99 -62 -57 -30 -103 -56 -101 -58 12
-11 283 141 304 170 9 13 21 17 35 13 17 -5 19 -4 7 4 -10 7 -11 11 -2 11 6 0
13 -1 15 -2 2 -2 11 5 21 14 9 10 24 14 33 11 11 -4 14 -3 9 5 -7 11 -3 14 27
16 6 1 14 4 17 7 3 4 34 21 70 39 36 18 79 42 95 54 41 31 66 42 35 17 -27
-22 -21 -28 11 -11 10 6 19 8 19 5 0 -3 -24 -16 -52 -29 -47 -21 -206 -112
-233 -133 -6 -4 -17 -9 -25 -11 -8 -2 -24 -12 -36 -23 -11 -10 -24 -19 -28
-19 -4 0 -32 -16 -62 -36 -30 -20 -89 -54 -132 -75 -44 -22 -66 -38 -52 -37
34 4 200 87 200 100 0 6 3 9 6 5 4 -3 12 -1 19 6 48 45 153 107 181 107 7 0
14 4 14 9 0 5 9 13 21 16 11 4 53 26 92 49 40 23 84 48 99 55 15 8 24 19 21
24 -4 6 0 8 11 4 11 -5 15 -3 10 5 -5 8 -2 9 10 5 9 -4 15 -3 12 2 -3 5 9 14
27 21 17 8 40 20 50 28 12 11 17 12 17 3 0 -7 16 1 35 18 33 28 47 35 68 32 4
0 7 3 7 9 0 5 7 6 17 3 12 -5 14 -3 8 7 -6 9 -4 11 5 5 10 -6 9 -11 -6 -22
-10 -7 -24 -11 -32 -8 -7 2 -15 -2 -18 -10 -4 -8 -12 -15 -19 -15 -7 0 -15 -4
-17 -8 -1 -4 -19 -19 -38 -32 -22 -15 -30 -18 -21 -7 20 25 1 21 -28 -7 -30
-28 -196 -133 -261 -166 -56 -28 -138 -77 -257 -155 -139 -91 -132 -85 -104
-83 14 2 35 12 47 23 12 11 71 49 130 84 60 35 125 74 144 86 20 13 58 34 85
48 28 14 73 41 102 60 28 19 95 56 147 82 53 26 96 51 96 57 0 5 9 7 19 3 11
-3 22 -1 26 4 4 7 -1 8 -11 4 -12 -4 -15 -3 -10 5 8 13 36 16 36 5 -1 -11 -30
-48 -36 -45 -2 1 -23 -8 -47 -22 -23 -13 -55 -30 -72 -36 -83 -33 -124 -54
-119 -61 2 -4 -35 -29 -83 -55 -84 -45 -209 -118 -263 -152 -14 -9 -29 -17
-35 -17 -5 -1 -9 -7 -7 -14 1 -7 -2 -10 -8 -6 -6 4 -29 -7 -52 -24 -31 -23
-37 -31 -22 -31 21 0 57 20 194 108 52 34 115 72 140 84 25 13 71 38 103 56
34 20 65 31 74 27 9 -3 19 -2 22 3 10 15 213 143 218 138 3 -3 -31 -29 -76
-58 -45 -29 -77 -54 -72 -56 6 -2 -60 -40 -147 -84 -86 -44 -208 -110 -269
-146 -95 -57 -109 -68 -86 -70 14 -2 29 0 32 5 10 14 61 44 61 36 0 -5 4 -3 8
4 6 10 127 83 138 83 2 0 4 -5 4 -11 0 -5 -6 -7 -12 -3 -10 5 -10 4 -2 -5 12
-13 54 -2 114 29 53 27 80 33 80 19 0 -7 -3 -9 -7 -6 -3 4 -13 -2 -20 -13 -8
-11 -19 -18 -24 -15 -5 4 -17 1 -26 -5 -15 -9 -14 -10 7 -4 24 6 24 5 8 -12
-14 -15 -20 -15 -33 -4 -14 11 -19 10 -33 -5 -13 -15 -14 -16 -1 -7 9 6 19 9
22 6 9 -9 -34 -41 -77 -59 -48 -20 -54 -35 -14 -35 22 0 43 9 61 26 24 22 28
23 25 8 -2 -11 -7 -22 -13 -26 -5 -4 9 -8 32 -8 33 0 59 10 110 42 108 66 194
109 205 102 6 -4 8 -2 5 3 -4 6 -1 13 7 16 8 3 17 -1 20 -9 3 -9 -6 -20 -27
-30 -18 -9 -68 -40 -111 -68 l-80 -51 73 -3 c58 -2 80 1 117 19 24 13 44 26
44 30 0 4 13 6 29 5 17 -1 28 1 25 6 -3 4 7 10 21 14 21 5 23 9 14 20 -10 12
-9 13 5 8 9 -3 22 -1 30 5 7 6 22 9 32 5 14 -4 15 -3 5 4 -19 13 3 25 32 17
17 -5 19 -4 7 4 -8 6 -10 11 -4 11 6 0 24 12 39 26 27 25 55 26 55 1 0 -7 -42
-34 -92 -59 -51 -26 -108 -58 -127 -72 -19 -14 -40 -26 -45 -26 -6 0 -4 5 4
10 12 7 11 9 -6 8 -11 -1 -27 -9 -34 -17 -12 -13 -12 -14 3 -8 9 3 17 2 17 -3
0 -6 53 -10 130 -10 97 0 130 3 130 13 0 8 3 9 8 1 4 -6 39 -12 78 -13 53 -1
74 2 84 14 7 8 19 15 26 15 8 0 14 4 14 8 0 14 48 32 65 26 10 -4 15 -2 13 7
-2 8 4 14 13 14 9 0 23 5 30 11 13 11 99 54 107 54 2 0 -3 -7 -12 -15 -8 -8
-20 -15 -26 -15 -7 0 -24 -9 -39 -19 -15 -11 -33 -21 -41 -23 -7 -2 -24 -13
-38 -26 -21 -18 -28 -20 -40 -10 -13 11 -15 10 -9 -5 4 -10 3 -16 -2 -13 -4 3
-16 -1 -27 -8 -16 -12 -5 -14 88 -14 59 -1 110 3 113 9 4 5 11 9 16 9 6 0 8
-4 5 -9 -3 -4 21 -9 54 -10 l60 -1 0 3219 c0 2235 -3 3222 -10 3226 -8 5 -7
11 1 21 7 9 8 14 1 14 -6 0 -13 -4 -16 -9 -3 -5 -17 -11 -32 -14 -24 -4 -25
-3 -20 34 4 31 2 37 -9 32 -8 -3 -15 -9 -15 -14 0 -13 -34 -11 -48 3 -10 10
-15 10 -21 0 -6 -11 -17 -11 -47 -3 -21 6 -40 8 -43 6 -2 -3 1 -5 7 -5 7 0 12
-4 12 -8 0 -5 -7 -9 -15 -9 -8 0 -15 6 -15 14 0 7 -7 13 -15 13 -12 0 -13 4
-5 19 11 22 14 82 2 65 -4 -6 -17 -14 -30 -18 -12 -4 -20 -11 -18 -15 3 -4
-17 -7 -44 -6 -40 1 -51 -2 -56 -17 -3 -10 -14 -18 -24 -18 -10 0 -33 -19 -51
-42 -49 -63 -82 -90 -91 -75 -5 8 -8 7 -8 -4 0 -9 -7 -19 -15 -23 -8 -3 -15
-11 -15 -18 -1 -17 -35 -58 -49 -58 -6 0 -11 -5 -11 -11 0 -6 -7 -17 -15 -25
-17 -17 -13 -61 11 -108 8 -16 12 -31 10 -34 -10 -9 -82 167 -105 253 -11 40
-39 95 -50 95 -5 0 -7 -9 -4 -20 3 -11 1 -20 -4 -20 -5 0 -17 28 -27 62 -12
43 -20 58 -28 50 -6 -6 -17 -8 -24 -5 -9 3 -14 -2 -15 -13 0 -11 -3 -14 -5 -7
-3 7 -12 9 -21 6 -8 -3 -18 -1 -22 6 -4 6 -24 13 -44 15 -28 3 -34 1 -30 -11
5 -12 7 -12 14 -1 7 10 9 10 9 -2 0 -13 2 -13 11 0 9 12 10 12 5 -4 -4 -11 -1
-23 6 -28 11 -6 11 -8 0 -8 -7 0 -15 7 -18 15 -4 8 -9 13 -13 10 -10 -5 -93
90 -113 130 -9 17 -19 45 -23 63 -5 24 -11 32 -22 28 -8 -3 -17 -6 -19 -6 -2
0 -2 -11 2 -25 4 -17 2 -25 -6 -25 -14 0 -136 -123 -213 -215 -28 -33 -71 -82
-97 -110 -25 -27 -79 -86 -119 -130 -134 -148 -169 -185 -179 -185 -6 0 -26
29 -46 65 -105 191 -285 434 -499 673 l-20 22 20 23 c11 12 25 30 30 40 8 16
21 7 98 -75 48 -51 122 -136 165 -189 86 -108 275 -386 297 -438 14 -32 14
-33 34 -15 40 36 42 52 13 102 -113 196 -324 468 -525 678 -74 77 -88 97 -94
135 -4 24 -18 75 -31 113 -15 42 -24 92 -24 127 0 146 -117 301 -270 360 -30
12 -97 28 -147 37 -84 14 -100 14 -174 -1 -44 -8 -98 -24 -119 -35 l-38 -19
-20 71 c-11 39 -23 105 -25 147 -6 93 -37 159 -103 224 -61 59 -134 86 -250
92 -186 11 -309 -49 -375 -183 -28 -56 -31 -70 -27 -134 3 -60 1 -70 -13 -70
-15 0 -17 18 -21 143 -4 122 -8 151 -30 209 -20 49 -25 77 -21 107 7 55 21 43
64 -57 18 -42 34 -79 36 -81 2 -3 13 5 26 16 37 35 129 81 192 98 114 29 264
15 367 -35 32 -15 44 -17 50 -8 12 21 129 -45 183 -103 76 -81 119 -202 95
-264 l-12 -30 -17 56 c-25 77 -72 156 -122 204 -41 38 -41 39 -20 7 34 -48 61
-136 67 -211 9 -116 5 -110 66 -94 73 20 237 20 318 -1 231 -58 387 -219 412
-424 5 -42 14 -90 20 -107 6 -16 19 -61 29 -100 19 -67 24 -74 127 -180 123
-125 200 -213 293 -335 67 -88 195 -277 205 -304 3 -9 9 -16 13 -16 4 0 56 55
116 123 61 67 164 181 231 252 l121 130 5 61 c13 140 93 245 239 313 131 62
198 74 364 68 161 -6 227 -23 365 -92 86 -44 115 -63 189 -123 l41 -34 0 529
0 529 -72 11 c-40 6 -82 14 -92 18 -17 8 -18 5 -12 -28 4 -22 3 -37 -3 -37 -5
0 -11 -12 -13 -27 -2 -19 -14 -32 -41 -46 -21 -11 -41 -26 -44 -33 -3 -8 -11
-14 -19 -14 -8 0 -14 -4 -14 -10 0 -5 -7 -10 -15 -10 -8 0 -15 -5 -15 -11 0
-5 -4 -8 -9 -4 -5 3 -12 1 -16 -5 -4 -6 -11 -8 -16 -5 -5 4 -9 2 -9 -3 0 -9
-100 -57 -112 -54 -5 1 -8 -2 -8 -7 0 -8 -37 -24 -52 -22 -5 1 -8 -4 -8 -9 0
-6 -5 -10 -11 -10 -6 0 -24 -9 -40 -21 -16 -11 -29 -17 -29 -13 0 3 -7 1 -15
-6 -8 -7 -15 -9 -15 -4 0 4 -5 3 -11 -3 -6 -6 -18 -9 -27 -6 -9 4 -13 2 -9 -4
4 -6 -13 -18 -38 -29 -25 -10 -45 -22 -45 -26 0 -5 -6 -8 -12 -6 -7 1 -35 -12
-62 -30 -28 -18 -56 -32 -63 -32 -7 0 -13 -5 -13 -10 0 -6 -25 -22 -55 -36
-30 -14 -66 -37 -80 -50 -14 -13 -27 -22 -30 -21 -2 1 -28 -21 -58 -50 -45
-44 -53 -57 -52 -86 2 -49 -18 -38 -45 26 -27 61 -23 132 9 194 21 41 98 114
236 223 44 34 82 64 84 66 3 3 -121 136 -423 454 -308 323 -472 496 -552 580
-51 52 -106 111 -124 130 -18 19 -73 78 -123 130 -153 159 -557 585 -732 770
-49 52 -128 136 -176 185 -47 50 -103 109 -124 133 l-37 42 -1502 -3 c-825 -2
-1521 -7 -1546 -11 -40 -6 -241 -108 -615 -313 -49 -27 -175 -94 -280 -148
-400 -206 -486 -254 -835 -460 -146 -87 -367 -209 -615 -339 -44 -24 -134 -71
-200 -106 -66 -35 -150 -80 -187 -102 -36 -21 -71 -38 -76 -38 -5 0 -26 -12
-47 -26 l-38 -25 -33 36 c-18 20 -38 34 -43 30 -6 -3 -9 0 -6 7 3 7 357 190
788 405 939 471 1389 701 1647 843 58 32 188 101 289 153 l184 95 -179 0 -179
0 -155 -77z m360 59 c8 -5 11 -10 5 -10 -5 0 -17 5 -25 10 -8 5 -10 10 -5 10
6 0 17 -5 25 -10z m-213 -29 c0 -11 -7 -17 -14 -14 -9 4 -9 8 0 19 16 17 16
17 14 -5z m461 -16 c12 -19 22 -36 22 -38 0 -1 -16 -11 -35 -21 -19 -10 -32
-23 -28 -29 3 -6 1 -7 -5 -3 -6 4 -42 -9 -79 -29 -37 -19 -131 -66 -208 -103
-380 -186 -508 -254 -494 -264 10 -7 9 -8 -7 -4 -23 7 -87 -21 -79 -34 3 -4
-3 -6 -14 -3 -10 3 -22 -1 -27 -8 -5 -9 -2 -10 10 -6 10 4 15 3 11 -3 -3 -6
-17 -10 -31 -10 -16 0 -23 -4 -18 -11 4 -7 0 -9 -12 -5 -11 3 -26 1 -34 -5
-13 -9 -12 -10 3 -5 11 4 16 2 11 -5 -3 -6 -15 -8 -25 -6 -11 3 -33 -1 -49
-10 -31 -15 -41 -27 -15 -17 8 4 15 3 15 0 0 -11 -81 -47 -92 -40 -7 4 -8 3
-4 -4 5 -8 -2 -12 -19 -12 -17 0 -24 -4 -19 -12 5 -8 2 -9 -10 -5 -9 4 -15 3
-12 -1 7 -11 -373 -204 -386 -196 -7 5 -8 3 -3 -6 6 -10 4 -12 -9 -7 -11 5
-15 3 -10 -5 5 -8 2 -9 -10 -5 -11 5 -15 3 -10 -5 5 -8 2 -9 -10 -5 -11 5 -15
3 -10 -5 5 -8 2 -9 -10 -5 -10 4 -15 3 -11 -3 3 -6 2 -10 -4 -10 -5 0 -248
-117 -538 -261 -465 -230 -640 -313 -623 -296 3 3 197 102 431 221 428 216
507 258 674 356 179 106 542 313 608 346 57 29 402 216 877 474 58 32 137 76
175 99 39 22 75 41 80 41 6 0 20 -16 33 -35z m94 -112 c21 -21 56 -63 80 -94
24 -31 98 -125 166 -208 67 -84 122 -156 122 -160 0 -4 -40 -27 -90 -51 -49
-24 -88 -45 -87 -47 2 -1 26 6 53 16 27 11 65 25 84 33 19 7 39 18 43 23 5 6
7 5 5 -3 -3 -11 -171 -91 -248 -119 -13 -4 -13 -4 0 6 50 36 -87 -31 -445
-219 -187 -97 -275 -133 -349 -140 -85 -8 -141 -32 -375 -160 -163 -89 -181
-103 -310 -222 l-136 -126 -472 -236 c-558 -279 -615 -305 -621 -288 -3 9 -8
10 -16 3 -8 -7 -32 17 -83 87 -40 53 -122 162 -182 241 -101 133 -134 192
-116 209 6 7 18 -5 78 -79 l28 -34 -20 36 c-22 38 -28 64 -12 55 5 -4 11 -3
13 2 4 10 116 67 160 81 20 7 54 24 74 37 20 14 62 35 92 46 31 12 66 31 78
43 13 13 25 21 27 18 3 -2 13 0 24 5 10 6 38 18 63 28 25 11 53 27 63 37 10
10 25 16 33 13 8 -3 14 -2 14 2 0 5 23 16 50 26 28 10 50 22 50 27 0 5 3 8 8
7 10 -2 145 65 154 77 5 6 8 6 8 1 0 -6 6 -3 13 6 6 9 29 21 49 28 20 6 53 22
73 36 20 13 63 35 96 49 32 13 71 33 85 44 15 12 32 21 39 21 15 0 75 29 95
46 23 19 111 64 127 64 14 0 54 20 63 32 3 4 28 17 55 28 80 34 100 44 108 57
4 6 22 15 40 18 37 9 105 41 125 61 7 8 18 14 24 14 22 0 127 53 122 62 -3 4
-2 8 3 6 4 -1 24 6 43 14 19 9 54 24 77 33 23 10 44 24 47 31 3 8 12 14 21 14
8 0 55 18 104 40 49 22 93 40 99 40 6 0 12 3 14 8 2 4 20 15 41 25 21 9 35 22
32 27 -4 6 8 10 27 10 33 1 33 1 9 14 -14 8 -19 16 -13 20 13 7 42 -3 42 -15
0 -5 5 -9 11 -9 6 0 9 7 6 14 -4 9 -1 13 7 10 6 -2 30 3 52 12 21 9 33 19 27
21 -21 8 -15 20 12 25 14 3 25 1 25 -3 0 -5 -5 -9 -12 -9 -6 0 -9 -2 -6 -5 3
-3 28 6 56 21 l51 26 33 -20 c18 -12 56 -46 83 -77 87 -99 94 -105 100 -96 3
6 -7 25 -23 43 -53 61 -142 180 -142 190 0 10 30 -27 178 -221 48 -63 96 -126
107 -140 13 -17 14 -22 3 -13 -14 11 -16 10 -14 -12 1 -20 4 -22 19 -14 16 8
37 4 26 -6 -36 -30 -817 -431 -894 -458 -40 -14 -43 -17 -15 -12 45 7 719 341
850 421 19 11 51 29 71 40 l36 19 -89 109 c-256 315 -278 344 -278 361 0 23
14 16 52 -23z m-72 -8 c-6 -8 -76 -45 -153 -84 -78 -38 -317 -156 -532 -261
-214 -106 -478 -235 -585 -287 -107 -52 -507 -250 -888 -440 -628 -313 -693
-348 -688 -367 5 -20 4 -20 -9 -2 -11 15 -11 21 -1 31 32 32 1385 710 2466
1237 135 65 274 134 310 153 71 38 101 45 80 20z m-180 -129 c0 -2 -7 -7 -16
-10 -8 -3 -12 -2 -9 4 6 10 25 14 25 6z m-40 -20 c0 -2 -11 -6 -25 -8 -13 -3
-22 -1 -19 3 5 9 44 13 44 5z m-135 -66 c-3 -5 -12 -10 -18 -10 -7 0 -6 4 3
10 19 12 23 12 15 0z m-35 -20 c0 -5 -2 -10 -4 -10 -3 0 -8 5 -11 10 -3 6 -1
10 4 10 6 0 11 -4 11 -10z m-170 -74 c0 -2 -7 -7 -16 -10 -8 -3 -12 -2 -9 4 6
10 25 14 25 6z m1004 -228 c-3 -7 -166 -93 -362 -190 -197 -98 -393 -198 -437
-222 -44 -25 -93 -48 -110 -52 -37 -8 36 31 477 255 189 96 361 185 383 197
48 26 56 28 49 12z m-148 -103 c-11 -8 -25 -15 -30 -15 -6 1 0 7 14 15 32 19
40 18 16 0z m-1126 -430 c0 -2 -12 -11 -27 -19 -16 -8 -58 -36 -94 -63 -37
-26 -111 -80 -165 -120 -55 -40 -135 -108 -179 -153 -79 -81 -102 -98 -180
-132 -42 -19 -40 -16 35 39 44 32 58 38 -224 -101 -131 -64 -240 -115 -243
-112 -3 3 117 66 268 141 150 74 283 146 294 158 11 13 18 18 15 12 -3 -6 4 0
15 14 74 92 221 206 360 278 129 67 125 65 125 58z m2605 -297 c45 -12 105
-20 138 -19 67 1 111 -15 180 -67 91 -69 186 -219 206 -325 10 -54 0 -62 -20
-15 -18 43 -149 218 -205 275 -25 24 -61 51 -81 59 -32 14 -38 14 -51 0 -13
-13 -24 -11 -96 16 -70 26 -98 31 -206 35 -187 8 -307 -29 -411 -127 -45 -43
-109 -154 -109 -190 0 -13 -18 -16 -117 -15 -65 0 -184 -3 -265 -8 l-147 -7
-77 90 c-43 49 -82 91 -89 94 -11 4 -136 -53 -420 -189 -66 -31 -230 -109
-365 -172 -135 -63 -337 -159 -450 -213 -113 -53 -230 -109 -260 -123 -64 -30
-405 -194 -532 -257 -49 -23 -88 -47 -88 -52 0 -5 9 -26 19 -47 l20 -38 -60
-29 c-33 -15 -63 -32 -65 -36 -3 -4 13 -34 35 -66 31 -46 37 -62 29 -76 -8
-14 -6 -28 6 -53 l16 -34 -66 -84 c-166 -216 -301 -447 -404 -692 -24 -57 -49
-103 -55 -103 -21 0 -35 -22 -25 -41 8 -14 3 -22 -28 -40 -70 -44 -124 -103
-158 -172 -42 -88 -50 -151 -31 -247 9 -41 18 -117 22 -168 4 -51 15 -123 25
-160 l18 -66 -72 -71 c-95 -92 -128 -158 -134 -273 -4 -72 -1 -92 23 -158 15
-41 45 -97 66 -123 20 -27 53 -80 72 -118 20 -38 54 -86 79 -109 46 -43 51
-53 138 -289 49 -132 65 -171 140 -330 169 -362 439 -741 709 -998 171 -163
358 -252 574 -273 67 -7 81 -13 197 -84 232 -142 350 -200 615 -301 l150 -58
2 -110 1 -110 98 -128 c306 -402 331 -428 449 -490 44 -22 121 -55 170 -73
118 -41 372 -110 408 -110 19 0 26 -4 21 -11 -5 -9 -41 -10 -126 -5 -270 15
-489 80 -626 184 -57 43 -335 388 -450 558 l-42 61 10 82 c11 85 9 101 -16
101 -28 0 -259 92 -401 160 -140 67 -265 137 -373 210 -49 33 -66 39 -151 49
-238 27 -455 151 -673 384 -353 376 -632 847 -800 1348 -42 127 -59 164 -88
194 -20 21 -50 63 -68 94 -18 31 -55 91 -83 133 -102 160 -129 290 -88 426 22
74 81 164 144 219 33 29 35 34 27 65 -16 59 -43 330 -44 438 0 99 2 109 33
173 24 50 55 90 116 150 83 81 84 83 141 222 112 278 234 483 423 715 34 41
61 80 61 86 0 7 -27 51 -60 100 l-60 87 60 34 c33 18 65 33 70 33 16 0 12 20
-11 51 -17 24 -19 32 -8 45 11 13 354 185 645 323 76 36 116 61 127 79 9 15
35 48 59 73 146 157 404 271 573 255 38 -4 75 -8 80 -8 6 -1 152 68 325 151
173 84 333 160 354 169 l40 16 91 -98 92 -98 102 11 c56 6 154 11 219 11 l117
0 29 56 c58 111 193 211 336 248 86 23 259 20 355 -6z m90 -105 c44 -16 85
-28 90 -26 6 2 29 -16 50 -39 36 -37 37 -39 9 -20 -17 12 -35 18 -39 14 -5 -4
-5 -2 -2 4 10 17 -19 39 -29 23 -4 -8 -3 -9 4 -5 7 4 12 1 12 -7 0 -7 14 -26
31 -43 17 -16 37 -42 45 -59 l15 -30 -28 31 c-83 93 -196 142 -343 148 -159 7
-281 -35 -368 -128 -27 -30 -48 -57 -46 -59 9 -8 -16 -58 -26 -52 -17 10 -32
-74 -25 -141 4 -35 4 -64 1 -64 -4 0 -17 21 -28 48 -57 128 6 287 147 372 91
54 167 70 320 66 116 -2 139 -6 210 -33z m-4881 1 c3 -8 2 -12 -4 -9 -6 3 -10
10 -10 16 0 14 7 11 14 -7z m3615 -374 c62 -74 138 -164 170 -200 117 -130
231 -265 231 -273 0 -19 -22 2 -96 88 -42 50 -109 124 -148 165 -39 41 -107
117 -151 169 -44 52 -99 116 -122 143 -24 26 -50 62 -58 78 -9 17 -17 30 -19
30 -3 0 -58 -25 -123 -56 -65 -31 -136 -64 -158 -74 -22 -11 -155 -76 -295
-145 -140 -69 -327 -158 -415 -197 -88 -39 -194 -88 -235 -109 -41 -20 -149
-71 -240 -112 -91 -42 -230 -107 -310 -147 -258 -127 -239 -113 -219 -153 7
-15 2 -12 -15 8 -14 17 -25 33 -26 37 0 11 368 188 990 478 149 69 288 135
490 233 63 30 214 103 335 161 l220 106 41 -48 c23 -26 92 -108 153 -182z
m1014 180 c4 0 7 9 7 20 0 29 18 25 38 -9 15 -27 21 -29 89 -33 67 -3 75 -6
108 -38 19 -18 35 -41 35 -49 0 -11 -7 -8 -23 11 -34 41 -64 51 -159 52 -82 2
-90 4 -118 31 -16 16 -30 38 -30 49 1 19 3 19 23 -6 13 -16 26 -28 30 -28z
m-5158 10 c-3 -5 -14 -10 -23 -10 -15 0 -15 2 -2 10 20 13 33 13 25 0z m-200
-100 c3 -6 -1 -7 -9 -4 -18 7 -21 14 -7 14 6 0 13 -4 16 -10z m5783 -35 c-10
-81 -53 -151 -127 -206 -76 -57 -115 -70 -226 -78 -231 -17 -381 49 -430 189
-8 24 -15 57 -14 74 l0 31 16 -40 c56 -138 151 -201 318 -212 44 -3 83 -11 87
-16 8 -13 128 7 169 28 42 22 107 123 135 210 l13 40 1 -40 c2 -22 4 -31 7
-20 3 11 9 24 14 30 5 5 9 19 9 32 0 15 6 23 16 23 14 0 16 -8 12 -45z m82
-16 c0 -8 -7 -39 -16 -68 -10 -36 -19 -50 -26 -43 -6 6 -17 2 -33 -14 -43 -43
-61 -25 -25 26 11 15 29 49 40 74 11 26 24 44 30 41 5 -3 10 2 10 12 0 15 2
16 10 3 5 -8 10 -22 10 -31z m-4145 11 c-3 -5 -12 -10 -18 -10 -7 0 -6 4 3 10
19 12 23 12 15 0z m2822 -26 c16 -41 -48 -68 -71 -31 -9 15 -7 21 8 33 26 19
55 18 63 -2z m-4747 -59 c-7 -8 -20 -15 -29 -15 -11 1 -8 5 9 15 32 18 35 18
20 0z m6743 -45 c70 -26 147 -95 147 -130 0 -23 -2 -22 -34 13 -77 84 -232
125 -342 91 -32 -10 -65 -18 -71 -17 -7 0 -10 -3 -7 -8 3 -5 -3 -9 -13 -9 -50
0 -122 -110 -123 -185 0 -36 -1 -38 -16 -23 -32 31 -16 122 31 184 26 34 121
89 181 104 60 15 181 5 247 -20z m-2783 15 c0 -7 -118 -65 -132 -64 -7 0 19
16 57 34 76 38 75 37 75 30z m100 -18 c0 -8 -64 -44 -142 -82 -79 -37 -190
-90 -247 -118 l-103 -50 70 -18 c86 -22 123 -40 184 -91 147 -122 105 -324
-88 -419 -54 -27 -79 -33 -157 -37 -110 -5 -184 8 -267 49 -112 57 -171 160
-150 267 13 68 19 79 77 134 59 54 65 58 212 118 64 27 168 71 231 100 92 42
367 158 378 160 1 0 2 -6 2 -13z m1045 -47 c3 -5 3 -25 -1 -45 -7 -41 -38 -49
-47 -13 -10 37 31 86 48 58z m-3565 -4 c0 -2 -7 -7 -16 -10 -8 -3 -12 -2 -9 4
6 10 25 14 25 6z m3295 -15 c8 -26 -5 -53 -23 -49 -19 4 -35 55 -19 62 24 9
36 6 42 -13z m1235 -22 c-21 -47 -49 -94 -50 -84 0 15 54 127 58 117 1 -5 -2
-20 -8 -33z m426 19 c-18 -10 -39 -2 -31 12 3 4 15 6 26 3 19 -5 19 -7 5 -15z
m-1529 -4 c7 -19 -16 -66 -29 -58 -13 8 -29 54 -22 65 9 15 44 10 51 -7z m793
-5 c0 -14 -16 -11 -29 5 -10 12 -8 13 8 9 12 -3 21 -9 21 -14z m-2030 -4 c0
-6 -179 -91 -210 -99 -14 -3 25 18 85 48 109 54 125 60 125 51z m1596 -157
c21 -40 -2 -37 -54 8 -30 25 -42 31 -42 20 0 -9 3 -16 8 -16 4 0 13 -10 21
-22 l14 -23 -22 19 c-34 31 -60 80 -70 131 l-9 47 70 -68 c38 -38 76 -81 84
-96z m1293 90 c1 -14 -45 -19 -72 -9 -22 9 -27 17 -27 45 l0 34 49 -31 c28
-18 50 -35 50 -39z m121 -24 c12 -12 9 -12 -20 -2 -65 21 -77 29 -35 22 22 -3
47 -12 55 -20z m128 -51 c-2 -27 -10 -41 -29 -52 -14 -9 -43 -28 -65 -43 -37
-25 -97 -49 -82 -33 4 4 29 22 55 39 26 17 53 42 60 56 7 14 13 21 13 16 0
-25 29 33 30 59 1 25 2 27 11 12 6 -9 9 -34 7 -54z m-827 -7 c-46 -74 -164
-151 -250 -163 -29 -4 -21 2 40 30 42 18 92 44 110 57 39 26 109 99 109 114 0
5 3 7 6 3 4 -3 -3 -21 -15 -41z m303 10 c8 -31 77 -89 133 -111 23 -9 72 -20
110 -23 84 -9 85 -27 0 -27 -133 1 -179 15 -227 68 -38 43 -29 47 15 8 57 -50
54 -36 -3 17 -32 30 -52 57 -52 70 0 30 16 28 24 -2z m561 -44 c-6 -4 -10 -12
-10 -19 0 -23 -137 -114 -150 -101 -3 2 29 33 70 68 41 35 75 68 75 74 0 6 5
5 12 -2 8 -8 9 -15 3 -20z m-1628 -72 c112 -85 123 -129 13 -52 -46 32 -105
102 -85 102 3 0 36 -23 72 -50z m1091 -70 c46 -32 58 -46 48 -52 -17 -10 -76
14 -97 39 -17 19 -33 66 -21 61 4 -2 35 -23 70 -48z m1071 -71 c73 -25 143
-72 191 -126 55 -62 63 -98 40 -170 l-18 -58 -2 45 c-2 64 -19 103 -68 160
-28 32 -65 60 -109 82 -64 31 -73 33 -178 33 -214 -1 -310 -68 -357 -247 -16
-66 -33 -55 -33 23 0 117 65 201 192 249 108 40 240 44 342 9z m-1058 -29 c64
-42 78 -89 19 -69 -33 12 -65 46 -73 77 -7 29 -3 28 54 -8z m524 20 c-3 -5
-12 -10 -18 -10 -7 0 -6 4 3 10 19 12 23 12 15 0z m-2235 -15 c0 -7 -61 -37
-66 -32 -3 2 10 12 28 20 37 19 38 19 38 12z m-250 -80 c-47 -24 -89 -44 -95
-44 -5 0 28 20 75 44 47 24 90 44 95 44 6 0 -28 -20 -75 -44z m165 35 c-3 -5
-14 -10 -23 -10 -15 0 -15 2 -2 10 20 13 33 13 25 0z m734 -52 c38 -10 46 -9
57 6 12 16 15 16 53 -6 23 -13 41 -29 41 -37 0 -13 -50 -224 -54 -229 -2 -1
-20 5 -40 13 -20 9 -72 18 -115 22 l-78 6 -214 -113 c-118 -61 -338 -174 -489
-250 -151 -76 -333 -168 -405 -205 -71 -37 -312 -160 -535 -273 -223 -112
-417 -216 -432 -230 -22 -20 -28 -36 -33 -91 -3 -36 -8 -81 -11 -100 -5 -30
-6 -31 -18 -15 -12 16 -18 17 -57 5 -54 -16 -104 -53 -124 -91 -17 -33 -20
-96 -6 -133 17 -43 73 -97 131 -127 56 -28 88 -55 77 -66 -10 -10 -111 24
-158 55 -90 57 -137 154 -118 242 19 84 74 138 169 166 56 16 55 15 65 126 6
65 8 69 38 82 35 15 1386 699 2005 1016 106 55 140 62 215 46 37 -8 37 -8 57
38 11 26 18 50 15 55 -8 12 -147 78 -182 85 -18 4 -33 11 -33 17 0 12 108 4
179 -14z m-849 -3 c-14 -8 -29 -14 -35 -14 -5 0 1 6 15 14 14 8 30 14 35 14 6
0 -1 -6 -15 -14z m1933 -20 c40 -28 51 -65 18 -65 -27 0 -59 30 -67 63 -8 34
1 34 49 2z m-2023 -20 c-14 -8 -32 -14 -40 -14 -9 0 -4 6 10 14 14 8 32 14 40
14 9 0 4 -6 -10 -14z m2903 -20 c20 -14 66 -35 101 -46 36 -11 68 -25 72 -31
5 -8 1 -9 -12 -4 -31 13 -135 23 -140 14 -11 -18 -35 -6 -59 29 -44 66 -28 82
38 38z m-979 -1 c11 -29 6 -45 -24 -82 -48 -61 -73 -128 -73 -202 -1 -59 3
-72 40 -135 69 -116 90 -225 59 -300 -8 -19 -38 -58 -65 -85 -58 -58 -56 -58
-139 17 -45 40 -54 55 -59 91 -6 42 -5 42 26 42 17 0 31 5 31 11 0 6 -14 38
-32 71 -76 143 -253 209 -439 163 -49 -11 -74 -14 -81 -7 -53 53 191 95 323
56 74 -22 146 -65 195 -116 54 -57 79 -100 100 -175 l17 -62 30 45 c28 42 29
47 18 90 -28 109 -96 200 -195 258 -148 88 -307 103 -476 47 -84 -29 -95 -30
-109 -16 -10 9 -12 18 -6 24 21 21 147 60 228 72 110 15 244 -5 350 -54 40
-18 77 -34 82 -36 6 -1 13 19 17 45 9 63 48 138 103 202 48 54 69 63 79 36z
m-2004 2 c0 -2 -114 -63 -252 -134 -379 -194 -827 -419 -822 -411 9 15 224
130 627 333 392 198 447 224 447 212z m899 -3 c20 -5 6 -12 -70 -39 -112 -39
-109 -39 -109 -15 0 15 14 24 58 39 62 22 85 25 121 15z m-2738 -101 c28 -40
45 -71 39 -67 -5 3 -28 32 -49 64 -21 31 -46 63 -55 70 -9 7 -16 18 -16 23 0
19 31 -16 81 -90z m4595 11 c1 -73 22 -131 63 -175 33 -36 40 -39 59 -29 42
22 87 14 125 -24 19 -19 43 -35 54 -35 15 0 16 2 3 10 -11 7 -6 10 20 10 53 0
133 48 227 137 32 30 33 30 33 8 0 -43 -61 -107 -139 -147 -67 -35 -79 -38
-156 -38 -92 0 -195 26 -239 61 -59 46 -101 178 -76 239 18 42 25 37 26 -17z
m-621 9 c32 -18 49 -72 23 -72 -19 0 -78 56 -78 74 0 20 17 20 55 -2z m-4108
-45 c-55 -36 -54 -33 -33 -69 11 -18 24 -36 30 -40 8 -5 8 -8 0 -8 -7 0 -28
20 -48 45 l-37 44 38 20 c42 22 81 29 50 8z m4119 -63 c19 -9 34 -19 34 -23 0
-3 3 -17 7 -29 5 -21 3 -23 -18 -20 -29 4 -89 88 -63 88 3 0 21 -7 40 -16z
m-3767 -204 c31 -41 60 -82 65 -90 17 -34 -75 78 -123 149 -57 84 -31 57 58
-59z m7 68 c53 -67 68 -88 61 -88 -3 0 -24 26 -48 57 -62 81 -71 93 -66 93 2
0 26 -28 53 -62z m4644 48 c0 -11 -19 -15 -25 -6 -3 5 1 10 9 10 9 0 16 -2 16
-4z m-3855 -22 c-19 -15 -188 -104 -247 -131 -16 -7 -30 -8 -33 -3 -3 5 58 41
136 80 136 68 186 86 144 54z m3005 -16 c18 -13 37 -33 41 -45 7 -20 5 -23
-15 -23 -26 0 -76 51 -76 76 0 20 12 18 50 -8z m-4124 -25 c58 -79 153 -223
146 -223 -8 1 -150 189 -170 226 -17 33 0 30 24 -3z m2932 -18 c12 -4 57 -51
100 -107 42 -55 96 -126 120 -156 37 -48 54 -92 36 -92 -12 0 -119 127 -200
235 -33 46 -64 77 -79 81 -18 4 -72 -18 -217 -91 -287 -145 -630 -322 -943
-487 -71 -38 -256 -132 -410 -210 -154 -77 -299 -154 -322 -170 -86 -58 -75
-87 124 -352 25 -32 41 -62 36 -67 -13 -13 -21 -4 -129 136 -124 160 -138 185
-131 239 7 48 37 78 125 122 31 15 163 83 292 149 129 67 339 175 465 240 127
65 257 132 290 150 33 18 200 104 370 190 171 87 315 161 320 165 18 14 100
39 115 35 8 -2 25 -6 38 -10z m1238 -87 c7 -5 10 -17 7 -27 -8 -30 -53 -14
-69 25 -8 18 -14 36 -14 39 0 6 58 -22 76 -37z m25 -137 c11 -28 2 -64 -14
-59 -12 4 -40 55 -52 97 l-7 23 32 -18 c18 -11 36 -30 41 -43z m-3736 9 c10
-11 16 -20 13 -20 -3 0 -13 9 -23 20 -10 11 -16 20 -13 20 3 0 13 -9 23 -20z
m-270 -30 c9 -16 13 -30 11 -30 -3 0 -14 14 -26 30 -12 17 -17 30 -11 30 6 0
17 -13 26 -30z m3152 -47 c7 -18 16 -33 19 -33 3 0 2 5 -2 12 -5 7 -3 8 5 4 7
-5 10 -15 7 -23 -3 -8 -2 -12 3 -9 10 7 44 -30 115 -124 72 -96 62 -83 132
-170 62 -77 95 -125 94 -136 -1 -3 7 -13 17 -22 29 -26 118 -146 115 -155 -1
-4 5 -10 13 -13 24 -10 134 -151 155 -200 11 -24 24 -44 29 -44 5 0 13 -9 16
-20 4 -11 10 -18 15 -15 4 2 13 -9 20 -25 7 -17 18 -34 24 -38 6 -4 24 -27 40
-52 16 -24 40 -56 53 -69 12 -14 23 -30 23 -35 0 -5 17 -28 38 -51 33 -37 177
-230 196 -262 4 -8 2 -11 -6 -8 -7 3 -44 48 -83 101 -38 53 -75 101 -80 107
-15 17 -117 150 -300 392 -88 116 -202 265 -255 331 -52 67 -135 174 -185 239
-49 64 -110 141 -134 170 l-44 53 -39 -25 c-29 -20 -42 -23 -50 -15 -9 9 -4
20 21 46 l34 35 -33 63 c-29 55 -30 61 -10 43 13 -11 29 -35 37 -52z m-2787
-8 c0 -5 -9 4 -20 20 -11 17 -20 35 -20 40 0 6 9 -3 20 -20 11 -16 20 -34 20
-40z m-565 -37 c-2 -18 -8 -22 -25 -20 -31 3 -35 9 -20 27 19 23 47 19 45 -7z
m4774 13 c10 -7 6 -13 -17 -26 -61 -36 -70 -113 -21 -170 32 -36 21 -39 -28
-7 -28 18 -57 93 -48 124 20 65 75 104 114 79z m-4429 -121 c0 -3 8 -15 18
-26 40 -44 102 -127 102 -137 0 -6 -2 -8 -4 -6 -11 12 -108 143 -135 182 -37
54 -42 76 -6 27 14 -19 25 -37 25 -40z m4264 43 c-8 -31 -51 -110 -65 -119
-10 -6 -69 26 -69 38 0 4 12 10 28 13 42 9 57 20 60 45 3 18 0 21 -13 16 -9
-3 -22 -6 -29 -6 -19 0 -96 -53 -96 -66 0 -7 20 -30 45 -52 47 -42 54 -52 31
-52 -21 0 -135 92 -130 105 9 23 86 78 128 91 22 7 58 13 79 13 36 1 37 0 31
-26z m-4654 -25 l25 -23 -34 -3 c-41 -4 -60 11 -41 33 17 20 22 19 50 -7z
m5320 -49 c0 -5 -12 -14 -27 -20 -16 -5 -47 -19 -71 -31 -58 -27 -62 -18 -8
20 66 48 106 59 106 31z m1466 -98 c-4 -6 -53 -46 -109 -89 -56 -43 -172 -132
-257 -197 -232 -178 -362 -267 -374 -255 -11 11 9 64 23 56 5 -3 19 10 32 29
13 19 27 35 32 35 4 0 7 6 7 13 0 8 9 18 20 23 10 5 81 70 157 144 76 74 189
180 250 235 62 55 113 107 113 115 0 8 24 -10 56 -41 31 -31 54 -62 50 -68z
m-2352 40 c17 -18 17 -19 -1 -24 -10 -3 -57 -9 -105 -13 -85 -6 -109 -16 -69
-29 11 -3 29 -22 41 -42 20 -35 22 -35 70 -29 l50 7 -49 -138 c-96 -270 -146
-382 -163 -365 -13 13 15 135 70 305 19 60 31 111 27 115 -4 4 -28 -5 -53 -19
-47 -26 -54 -42 -41 -89 2 -8 -3 -14 -10 -15 -11 0 -20 -27 -32 -89 -10 -51
-25 -96 -35 -105 -15 -15 -16 -7 -10 112 6 127 6 128 -15 122 -16 -6 -20 -3
-17 12 1 10 -14 42 -35 71 -20 29 -37 55 -36 60 0 9 113 82 127 82 6 0 14 5
18 11 5 9 -24 10 -107 7 -92 -4 -128 -11 -183 -32 -113 -44 -125 -28 -22 27
82 44 98 49 190 57 105 10 181 15 302 18 59 2 74 -1 88 -17z m-4486 -3 c15
-15 16 -48 0 -48 -6 0 -27 5 -45 12 -31 11 -41 27 -26 41 11 11 58 8 71 -5z
m2935 -18 c59 -6 136 -17 171 -25 123 -29 289 -109 339 -164 20 -22 17 -21
-23 6 -147 97 -386 163 -586 163 -94 -1 -307 -25 -371 -43 -249 -70 -506 -230
-631 -391 -66 -85 -94 -137 -132 -241 -33 -90 -41 -106 -34 -65 36 201 175
396 379 530 93 60 254 140 340 169 84 27 205 51 305 60 125 12 126 12 243 1z
m-2534 -24 c5 -27 -26 -48 -50 -35 -19 10 -25 39 -12 53 14 14 58 1 62 -18z
m5071 -6 c8 -5 12 -10 8 -11 -5 -1 -11 -2 -15 -3 -5 -1 -26 -5 -48 -9 -22 -5
-48 -10 -57 -13 -31 -9 -19 16 15 31 38 17 76 19 97 5z m-5236 -16 c10 -26 7
-42 -10 -48 -25 -10 -54 3 -54 23 0 36 52 57 64 25z m2823 -29 c104 -20 246
-68 312 -106 65 -38 81 -21 -152 -162 -93 -56 -188 -114 -213 -129 l-44 -27
-33 19 c-104 62 -270 81 -393 45 -132 -38 -238 -117 -284 -210 -33 -67 -34
-171 -3 -230 27 -51 106 -125 133 -125 24 0 87 31 230 113 265 152 816 485
857 517 l25 20 45 -50 c25 -28 56 -53 69 -56 13 -3 24 -9 24 -13 0 -3 -177
-111 -393 -240 -215 -129 -441 -264 -502 -301 -335 -203 -681 -406 -727 -427
-24 -11 -28 -10 -28 2 0 13 138 125 172 138 9 4 6 12 -11 26 -20 18 -36 21
-131 21 -124 0 -135 5 -193 92 -79 120 -102 305 -58 458 27 93 34 108 90 193
130 198 436 376 743 432 103 19 367 19 465 0z m3992 -54 c25 -13 40 -26 35
-28 -6 -2 -42 17 -80 43 -80 53 -96 68 -39 34 22 -13 60 -35 84 -49z m-7107
24 c15 -33 9 -37 -38 -24 -50 14 -52 16 -28 34 29 22 53 18 66 -10z m767 -117
c-1 -79 -4 -155 -8 -170 l-6 -28 -120 56 c-66 30 -128 63 -137 72 -9 9 -23 38
-29 63 -11 41 -10 50 4 73 22 33 44 33 79 -1 25 -24 29 -25 45 -11 25 22 145
88 161 88 9 0 12 -34 11 -142z m4834 95 c3 -5 -17 -15 -44 -25 -40 -13 -49
-14 -49 -3 0 8 8 19 18 24 20 12 69 14 75 4z m-5238 -33 c0 -10 -12 -16 -32
-18 -35 -3 -41 6 -21 26 17 17 53 11 53 -8z m6510 -26 c-36 -28 -61 -36 -30
-10 17 14 35 26 40 26 6 -1 1 -8 -10 -16z m-6702 -12 c16 -17 16 -21 -2 -58
-10 -21 -29 -69 -42 -106 l-23 -67 50 -53 c64 -67 99 -127 119 -203 16 -60 13
-155 -5 -185 -9 -15 -8 -19 -31 100 -23 117 -112 257 -198 311 l-24 15 27 70
c43 113 85 194 99 194 8 0 21 -8 30 -18z m-226 -3 c9 -9 8 -15 -3 -26 -18 -18
-48 -13 -52 9 -3 14 6 20 39 27 3 0 10 -4 16 -10z m5781 -51 c-3 -7 -21 -19
-42 -27 -30 -12 -41 -12 -61 -1 -26 14 -24 34 3 26 10 -3 24 -1 32 4 22 14 73
13 68 -2z m1042 -2 c-12 -11 -211 -138 -321 -204 l-26 -16 42 -90 c108 -233
187 -525 211 -783 6 -69 8 -73 44 -97 21 -14 50 -41 65 -59 16 -22 40 -39 63
-45 37 -10 396 -146 464 -176 38 -16 58 -36 37 -36 -7 0 -2 -11 11 -25 13 -14
19 -25 14 -25 -17 0 -420 141 -499 174 -22 10 -51 18 -65 18 -17 1 -37 17 -65
52 -23 28 -66 68 -97 90 l-56 38 -7 82 c-20 239 -97 523 -204 756 -28 61 -26
77 12 96 19 10 27 19 19 22 -7 2 60 50 150 106 90 55 175 109 188 119 29 21
40 22 20 3z m-1508 -28 c172 -64 280 -181 294 -321 l6 -52 -41 82 c-51 101
-125 177 -216 221 -87 43 -142 54 -260 54 -203 0 -353 -82 -423 -232 -21 -45
-26 -69 -26 -130 1 -41 7 -95 13 -119 16 -58 9 -61 -22 -9 -54 92 -58 184 -11
283 49 105 189 209 326 240 98 22 275 14 360 -17z m-5349 -46 c10 -10 14 -22
10 -25 -10 -10 -53 -8 -53 2 0 5 -9 11 -21 14 -12 3 -18 10 -14 16 10 17 60
13 78 -7z m5302 -43 c72 -23 144 -74 185 -131 47 -64 36 -65 -32 -2 -112 103
-236 141 -370 114 -88 -18 -179 -63 -221 -109 -37 -41 -77 -146 -77 -202 0
-37 -17 -37 -31 -1 -14 36 -7 118 15 164 76 159 319 235 531 167z m600 -8 c5
-9 -17 -20 -49 -25 -6 -1 -22 -8 -34 -15 -13 -7 -26 -10 -30 -7 -10 11 24 38
59 46 47 11 47 11 54 1z m-5911 -52 c62 -23 130 -69 146 -100 17 -31 9 -31
-39 1 -58 40 -144 71 -211 77 -77 7 -197 -13 -246 -42 -54 -32 -128 -130 -143
-189 -10 -40 -9 -51 8 -84 26 -51 87 -105 143 -126 47 -18 163 -19 202 -1 16
7 17 5 11 -13 -8 -26 -5 -26 41 -7 79 33 193 158 194 212 1 17 1 17 11 0 33
-56 -41 -157 -155 -212 -62 -30 -83 -35 -156 -37 -96 -2 -169 17 -235 62 -45
31 -95 112 -95 154 0 16 -4 25 -10 21 -5 -3 -10 -17 -10 -31 0 -16 -4 -23 -11
-18 -18 11 -3 101 26 161 30 60 94 121 163 153 107 51 261 59 366 19z m639 19
c15 -12 13 -19 -19 -84 -99 -198 -18 -413 192 -505 58 -26 158 -41 206 -30 32
7 40 5 58 -14 26 -28 20 -32 -61 -41 -116 -11 -278 43 -370 125 -57 50 -104
130 -125 211 -14 55 -15 77 -5 138 10 69 46 158 79 195 18 20 23 21 45 5z
m5847 -73 c0 -2 -10 -9 -22 -15 -22 -11 -22 -10 -4 4 21 17 26 19 26 11z
m-570 -23 c0 -4 20 -6 45 -4 30 3 45 0 45 -8 0 -8 -17 -11 -51 -9 -35 2 -53
-1 -60 -12 -7 -11 -9 -10 -9 7 0 11 3 24 7 27 9 9 23 9 23 -1z m-772 -33 c27
-24 31 -33 22 -45 -7 -7 -18 -14 -26 -14 -13 0 -64 66 -64 82 0 18 37 5 68
-23z m-5329 -55 c41 -36 45 -64 10 -64 -16 0 -69 72 -69 93 0 16 22 5 59 -29z
m5478 11 c20 -8 34 -18 30 -21 -3 -3 -15 0 -27 6 -12 7 -44 10 -71 8 -42 -2
-47 -1 -32 10 22 16 56 15 100 -3z m182 -16 c18 -51 13 -83 -18 -126 -42 -58
-138 -124 -186 -129 -5 0 -27 -8 -49 -17 -24 -11 -65 -17 -110 -17 -61 0 -82
5 -141 34 -97 47 -126 72 -48 41 35 -14 94 -30 131 -37 63 -11 76 -10 152 12
99 28 156 68 188 130 12 24 22 40 22 35 1 -22 18 23 25 63 8 50 19 54 34 11z
m-62 -31 c-3 -7 -5 -2 -5 12 0 14 2 19 5 13 2 -7 2 -19 0 -25z m633 23 c0 -16
-46 -40 -60 -31 -11 7 -11 11 -1 24 14 17 61 22 61 7z m1187 -18 c-13 -13 16
-33 48 -33 24 0 39 -7 54 -26 12 -15 21 -29 21 -33 0 -3 -24 -32 -53 -63 -74
-80 -87 -97 -87 -108 0 -6 -4 -10 -9 -10 -5 0 -12 -8 -14 -17 -12 -46 -5 98 9
184 15 96 20 113 31 113 4 0 3 -3 0 -7z m-7248 -29 c17 -14 31 -33 31 -42 0
-13 -4 -11 -16 6 -19 27 -48 44 -94 53 l-35 7 42 1 c31 1 49 -5 72 -25z m6146
-74 c16 -7 13 -9 -15 -9 -20 -1 -53 -10 -73 -20 -33 -17 -36 -17 -26 -3 32 42
68 52 114 32z m-381 -6 c20 -8 21 -54 2 -54 -8 0 -21 -3 -30 -6 -11 -4 -19 2
-25 17 -14 38 12 59 53 43z m-5482 -112 c-7 -2 -12 -10 -12 -17 0 -7 -7 -26
-16 -41 -18 -32 -19 -40 8 75 l13 53 9 -33 c7 -24 7 -34 -2 -37z m3385 33 c53
-40 48 -39 103 -20 51 18 64 11 30 -16 -61 -47 -1181 -734 -1345 -825 -11 -6
-44 -25 -72 -42 l-53 -31 -6 23 c-12 47 0 70 56 109 36 25 54 44 52 55 -13 62
-18 57 213 199 121 75 290 177 375 228 200 119 471 283 534 323 28 18 54 32
59 32 4 0 29 -16 54 -35z m-3702 -55 c-10 -11 -21 -17 -24 -14 -3 3 3 12 13
20 28 20 32 17 11 -6z m6240 0 c4 -6 -17 -10 -55 -10 -38 0 -59 4 -55 10 3 6
28 10 55 10 27 0 52 -4 55 -10z m-2128 -73 c118 -176 130 -399 33 -601 -119
-248 -400 -433 -733 -482 -237 -35 -481 -1 -655 91 -126 67 -127 68 -113 103
7 17 25 41 39 54 21 19 214 143 299 192 7 4 46 -9 87 -29 142 -70 290 -71 440
-2 169 79 233 255 152 421 -15 31 -26 59 -25 61 4 3 183 114 304 188 28 17 64
41 80 54 17 12 33 23 37 23 4 0 29 -33 55 -73z m1767 52 c14 -11 26 -24 26
-29 0 -14 -61 -18 -67 -3 -7 18 -32 17 -53 -2 -16 -14 -18 -14 -24 0 -8 22 29
55 63 55 15 0 40 -9 55 -21z m686 -49 c37 -73 67 -186 84 -315 8 -55 13 -101
11 -103 -2 -2 -76 27 -82 32 -1 1 -7 53 -13 116 -13 136 -37 300 -47 325 -15
41 19 1 47 -55z m-6290 -9 c0 -6 -12 -23 -26 -38 l-25 -28 23 37 c24 40 28 44
28 29z m-664 -55 c60 -60 58 -84 -4 -52 -26 13 -42 37 -56 79 -9 29 15 19 60
-27z m1904 37 c0 -12 -43 -53 -56 -53 -30 0 -22 -24 29 -87 30 -38 69 -90 87
-118 18 -27 66 -90 105 -140 40 -49 98 -128 130 -175 32 -47 81 -114 110 -150
28 -36 71 -94 95 -130 24 -36 83 -117 130 -180 118 -157 223 -310 213 -310 -9
0 -71 81 -142 185 -19 27 -37 52 -40 55 -16 13 -95 115 -154 200 -37 52 -90
124 -118 160 -28 36 -62 81 -75 100 -68 99 -97 137 -134 176 -25 26 -38 48
-34 55 4 7 3 9 -4 5 -12 -7 -112 118 -112 140 0 7 -3 14 -8 16 -4 2 -29 33
-56 69 -57 78 -92 100 -116 72 -32 -37 -57 -53 -74 -47 -39 15 -12 40 134 126
62 36 90 46 90 31z m-1268 -73 c-67 -62 -139 -113 -154 -108 -7 3 19 25 57 51
39 25 86 59 105 76 56 49 50 35 -8 -19z m5968 25 c0 -16 -27 -32 -37 -22 -3 4
-3 13 0 22 8 20 37 20 37 0z m-310 -33 c0 -43 -70 -60 -90 -22 -16 30 -4 40
46 40 36 0 44 -3 44 -18z m-5224 -44 c123 -44 195 -103 235 -192 24 -55 21
-120 -6 -159 -14 -20 -15 -19 -15 31 0 122 -80 218 -228 274 -82 32 -233 32
-315 0 -105 -41 -212 -102 -178 -102 5 0 13 5 16 10 3 6 12 10 18 10 7 0 4 -7
-5 -14 -10 -7 -18 -19 -18 -25 0 -7 -3 -11 -7 -9 -49 23 -83 43 -83 47 0 10
143 99 195 121 75 32 120 39 225 36 70 -3 114 -10 166 -28z m-1031 -86 c18
-10 15 -11 -17 -12 -21 0 -38 1 -38 3 0 1 -4 17 -10 36 l-10 34 28 -25 c15
-14 36 -30 47 -36z m6031 9 c274 -71 654 -185 789 -236 164 -62 321 -169 360
-246 19 -36 19 -89 -1 -114 -16 -20 -16 -20 -9 3 4 14 2 22 -5 22 -8 0 -11
-11 -8 -30 3 -17 1 -33 -4 -36 -4 -3 -8 -14 -8 -26 0 -12 -5 -18 -13 -15 -9 3
-13 -11 -13 -52 -1 -40 -12 -82 -38 -146 -20 -49 -36 -99 -36 -110 0 -12 -3
-16 -8 -8 -4 6 -7 -10 -7 -35 -1 -26 -9 -73 -18 -104 -16 -54 -20 -58 -59 -69
-66 -17 -195 -8 -248 18 -138 68 -318 302 -394 511 -32 89 -32 105 -3 125 l22
15 -28 11 c-16 6 -33 9 -38 5 -5 -3 -9 1 -9 8 0 7 -33 25 -72 40 -40 14 -111
40 -157 57 -46 17 -111 45 -144 61 -60 30 -92 37 -100 23 -3 -5 -92 -8 -199
-8 -205 1 -279 13 -339 56 -15 10 -31 19 -36 19 -4 0 -2 -4 6 -9 7 -5 9 -11 4
-14 -6 -4 -20 12 -32 34 -28 49 -23 94 15 138 31 37 73 50 189 57 95 5 181 21
330 59 81 22 118 30 151 34 6 0 78 -16 160 -38z m-4472 -39 c16 -36 16 -39 -3
-83 -45 -100 -46 -259 -4 -332 16 -27 25 -31 67 -34 43 -3 47 -1 41 14 -40 93
-43 132 -20 211 19 63 35 59 35 -7 0 -57 24 -133 50 -156 12 -11 29 -16 45
-13 14 3 28 2 30 -3 5 -7 -14 -149 -21 -157 -1 -2 -16 4 -33 12 -16 9 -51 16
-77 16 l-48 0 35 -36 c62 -64 217 -124 322 -124 40 0 48 -3 45 -17 -7 -38
-169 -37 -278 2 -113 40 -227 152 -275 272 -31 77 -41 186 -26 268 11 60 75
205 90 205 4 0 16 -17 25 -38z m236 -92 c52 -73 63 -90 56 -90 -3 0 -20 21
-37 48 -18 26 -47 63 -65 84 -18 20 -38 47 -44 60 -16 33 33 -22 90 -102z
m-1402 76 c61 -31 132 -92 132 -113 0 -11 -9 -7 -31 12 -18 14 -55 38 -83 53
-48 25 -59 27 -181 27 -118 -1 -137 -3 -199 -28 -86 -34 -151 -75 -167 -104
-7 -12 -16 -20 -21 -17 -4 3 -8 0 -8 -6 0 -6 -10 -24 -22 -40 -34 -46 -32
-140 4 -202 82 -138 203 -173 462 -134 20 3 48 25 86 65 68 71 90 114 90 173
1 36 2 40 11 24 9 -15 13 -16 20 -5 5 8 9 26 9 42 0 31 7 34 26 10 19 -25 17
-91 -5 -138 -20 -44 -103 -127 -169 -169 -75 -47 -129 -61 -237 -61 -167 0
-252 46 -311 169 -19 39 -34 79 -34 90 0 43 -15 0 -21 -57 -5 -62 -5 -62 -19
-32 -18 42 -17 131 3 190 26 77 93 153 177 203 105 63 189 83 325 79 96 -3
117 -7 163 -31z m440 -85 l25 -43 -29 4 c-23 2 -31 10 -40 38 -22 66 5 67 44
1z m65 -5 c18 -13 48 -31 67 -38 19 -8 41 -22 48 -31 9 -11 -10 -6 -60 15 -67
28 -98 50 -98 70 0 13 9 9 43 -16z m60 -85 c15 -15 21 -97 8 -105 -7 -5 -11 2
-11 19 0 33 -27 80 -54 94 -18 10 -16 11 14 6 19 -3 38 -9 43 -14z m-806 -41
c42 -30 54 -34 99 -31 53 3 124 -19 124 -39 0 -7 -11 -5 -28 4 -30 16 -153 24
-188 12 -17 -5 -29 3 -58 34 -68 75 -41 86 51 20z m1809 -64 c101 -155 245
-362 492 -707 67 -95 122 -174 122 -177 0 -21 -46 41 -330 443 -62 88 -125
176 -140 195 -14 19 -52 76 -84 125 -32 50 -81 124 -108 165 -32 48 -41 66
-24 51 14 -13 46 -56 72 -95z m5976 20 c0 -24 -5 -53 -11 -63 -9 -15 -10 -12
-11 18 0 42 11 102 17 95 3 -2 5 -25 5 -50z m-6751 -65 c-22 -41 -136 -121
-173 -121 -7 0 14 24 47 54 33 30 63 52 66 50 4 -2 14 5 24 16 24 26 50 27 36
1z m100 -88 c-19 -36 -101 -133 -101 -119 0 3 20 31 45 61 24 30 50 74 57 97
10 32 14 37 16 21 2 -12 -6 -39 -17 -60z m4116 71 c-3 -3 -12 -4 -19 -1 -8 3
-5 6 6 6 11 1 17 -2 13 -5z m-4107 -116 c0 -7 -12 -26 -26 -43 l-25 -30 23 42
c25 46 28 50 28 31z m4006 -49 c3 -5 -3 -9 -14 -9 -40 0 -380 -183 -982 -529
-196 -113 -460 -263 -735 -416 -71 -40 -227 -127 -345 -194 -163 -92 -216
-117 -218 -106 -5 24 24 62 68 90 46 29 338 196 515 295 66 37 174 98 240 135
66 37 212 120 325 183 113 63 252 142 310 175 243 139 414 234 565 314 88 47
164 89 169 93 9 9 93 -17 102 -31z m-4612 -70 c-27 -48 -66 -89 -86 -89 -5 0
6 18 25 41 19 22 46 65 59 94 19 44 24 49 26 29 2 -13 -9 -47 -24 -75z m6749
39 c87 -32 89 -33 84 -63 -2 -16 -17 -64 -32 -105 -70 -190 -134 -476 -156
-692 -7 -65 -15 -118 -18 -117 -3 0 -53 22 -111 48 l-105 48 3 44 c8 146 65
429 118 594 41 124 105 275 118 275 6 0 51 -14 99 -32z m264 -89 c159 -63 219
-95 244 -131 l20 -27 -48 19 c-26 10 -118 45 -203 76 -85 31 -157 58 -159 60
-5 4 8 54 14 54 3 0 62 -23 132 -51z m-6508 28 c-2 -1 -17 -11 -34 -23 -34
-23 -115 -57 -122 -51 -5 5 150 85 156 80 2 -1 2 -4 0 -6z m4091 -227 c-23
-19 -76 -50 -470 -277 -85 -49 -263 -152 -395 -228 -132 -76 -285 -164 -340
-195 -55 -31 -226 -128 -380 -214 -154 -87 -317 -179 -362 -205 -46 -25 -83
-49 -83 -53 0 -4 28 -43 63 -86 104 -131 254 -326 524 -680 66 -87 93 -129 74
-117 -6 3 -43 48 -81 98 -248 327 -563 730 -598 766 -13 13 -20 27 -15 31 9 9
189 113 408 235 77 43 250 141 385 218 135 77 324 185 420 240 96 54 299 170
450 257 350 200 403 230 415 230 6 0 -1 -9 -15 -20z m200 -55 c30 -36 56 -69
58 -73 1 -4 -55 -41 -125 -81 -71 -41 -211 -122 -313 -180 -102 -59 -282 -162
-400 -230 -118 -68 -251 -145 -295 -171 -44 -26 -152 -90 -240 -140 -88 -51
-213 -124 -278 -161 -66 -38 -121 -69 -124 -69 -8 0 -42 42 -80 99 -29 44 -33
55 -22 66 8 8 151 92 319 188 168 96 420 241 560 322 140 81 309 178 375 215
66 38 201 116 300 173 99 58 187 106 195 106 8 0 40 -29 70 -64z m2308 6 c10
-6 7 -10 -12 -15 -16 -4 -28 -15 -32 -31 -7 -28 -19 -32 -28 -9 -9 24 -8 31
10 48 17 18 42 20 62 7z m-1393 -66 c17 -23 21 -33 9 -23 -10 9 -28 32 -38 50
-22 39 -11 29 29 -27z m-4505 19 c135 -39 256 -138 278 -226 l11 -43 -27 35
c-77 101 -163 158 -288 190 -236 61 -491 -23 -602 -197 -17 -27 -34 -60 -37
-76 -13 -51 -29 -44 -22 11 11 93 52 149 170 230 133 92 352 125 517 76z m-73
-85 c34 -6 61 -14 59 -18 -3 -4 9 -14 25 -23 16 -10 29 -13 29 -9 0 4 -10 13
-22 19 -13 6 -18 11 -12 11 16 1 104 -57 104 -69 0 -5 -4 -10 -10 -10 -5 0
-10 5 -10 12 0 9 -3 9 -12 0 -8 -8 -8 -15 3 -29 10 -13 7 -12 -11 3 -68 57
-154 84 -264 84 -59 0 -171 -37 -227 -74 -42 -28 -95 -111 -105 -164 -10 -50
21 -119 76 -173 59 -58 111 -72 239 -66 100 4 117 12 216 99 23 21 45 35 49
31 4 -4 4 1 0 11 -5 12 -4 17 3 13 6 -4 18 21 28 58 20 70 29 79 39 40 21 -82
-52 -174 -193 -243 -94 -46 -98 -47 -191 -47 -84 0 -101 3 -146 27 -98 52
-160 155 -152 253 4 50 -4 47 -22 -7 -17 -56 -35 -61 -26 -8 31 194 278 323
533 279z m-1107 -49 c0 -5 -7 -10 -15 -10 -9 0 -29 -7 -45 -15 -33 -17 -38
-11 -13 17 17 19 73 25 73 8z m5415 1 c6 -10 -23 -33 -103 -80 -58 -34 -72
-38 -72 -18 1 6 36 33 78 58 85 52 88 53 97 40z m435 -81 c28 -28 90 -110 82
-110 -6 0 -21 15 -33 33 -13 17 -47 59 -76 92 -29 33 -53 63 -53 68 0 4 17
-12 38 -35 20 -24 39 -45 42 -48z m-6326 9 c1 -2 22 -53 46 -114 61 -154 109
-256 179 -383 61 -111 205 -342 247 -398 29 -37 29 -40 5 -87 l-19 -37 -49 62
c-146 187 -253 357 -352 556 -69 140 -144 321 -156 380 l-7 32 52 -4 c28 -2
52 -5 54 -7z m506 -44 c0 -8 -62 -37 -67 -31 -14 14 9 36 37 36 16 0 30 -2 30
-5z m960 -20 c18 -19 33 -25 68 -25 49 0 107 -23 116 -47 6 -14 4 -14 -10 -2
-43 35 -133 49 -154 24 -7 -8 -18 -15 -25 -15 -12 0 -45 57 -45 79 0 19 26 12
50 -14z m4588 -45 c3 -18 -469 -291 -507 -293 -50 -4 -29 23 56 69 48 26 162
92 253 146 91 54 172 97 180 95 8 -1 16 -9 18 -17z m-3437 -56 c52 -48 69
-100 68 -198 -1 -47 -5 -86 -9 -86 -4 0 -8 -15 -8 -33 0 -46 -43 -124 -96
-176 -45 -44 -50 -65 -16 -74 16 -4 18 -20 22 -168 7 -271 14 -286 404 -774
130 -163 155 -225 134 -326 -8 -35 -19 -63 -28 -66 -8 -4 -69 8 -136 25 -149
38 -392 79 -571 97 -64 7 -74 11 -112 47 -46 45 -69 43 -59 -3 5 -26 3 -28
-12 -20 -56 30 -125 131 -164 241 -30 82 -36 286 -13 455 10 72 20 211 24 310
l6 180 49 90 c52 96 115 195 151 235 12 14 41 61 64 105 79 149 115 178 214
172 47 -3 63 -9 88 -33z m2749 27 c0 -9 -40 -34 -145 -91 -33 -18 -96 -52
-140 -76 -96 -52 -159 -79 -150 -65 3 6 12 11 18 11 7 0 48 23 92 51 44 29
103 64 130 79 28 15 79 43 115 63 69 39 80 42 80 28z m-4837 -19 c16 -7 14
-10 -12 -29 -24 -18 -30 -20 -35 -8 -13 35 9 52 47 37z m5027 -6 c0 -18 -27
-29 -36 -14 -4 5 0 14 7 19 20 13 29 11 29 -5z m538 -7 c3 -17 -69 -65 -213
-142 -60 -32 -151 -83 -202 -114 -87 -52 -113 -59 -113 -29 0 7 82 59 183 116
100 57 214 123 252 146 72 44 88 48 93 23z m-5258 -19 c55 -15 130 -66 130
-90 0 -26 -4 -25 -45 6 -79 60 -205 81 -296 49 -83 -29 -139 -90 -139 -151 0
-25 57 -110 67 -100 3 3 22 -1 42 -9 20 -7 45 -16 56 -20 15 -5 16 -8 6 -14
-9 -6 11 -13 56 -20 81 -14 106 -7 156 43 23 22 37 31 41 23 3 -8 5 -7 5 3 1
8 10 26 21 40 l20 25 0 -32 c0 -35 -39 -81 -94 -111 -37 -20 -174 -22 -244 -3
-83 23 -181 146 -167 210 14 64 110 143 196 161 47 10 132 5 189 -10z m5313
-42 c4 -14 -12 -24 -218 -135 -77 -42 -175 -98 -218 -126 -58 -37 -81 -47 -89
-39 -7 7 -10 13 -7 15 39 27 317 187 325 187 9 0 165 94 170 102 8 12 32 10
37 -4z m-4663 -18 c0 -5 -2 -10 -4 -10 -3 0 -8 5 -11 10 -3 6 -1 10 4 10 6 0
11 -4 11 -10z m6170 -116 c-23 -189 -56 -277 -135 -362 l-52 -56 -59 24 c-183
74 -397 171 -407 184 -7 9 -34 25 -62 35 l-50 19 3 44 c2 24 5 45 7 46 2 2 42
-11 89 -29 70 -26 86 -36 86 -53 0 -17 31 -35 175 -100 169 -76 175 -78 199
-63 14 9 38 36 54 59 52 76 70 118 148 337 12 35 14 -4 4 -85z m-6946 16 c25
0 11 -17 -19 -22 -16 -4 -25 -1 -25 8 0 7 -3 21 -7 31 -6 17 -6 17 14 1 11
-10 27 -18 37 -18z m1181 -55 c-15 -58 -24 -71 -74 -115 -62 -56 -175 -115
-236 -124 -27 -5 -13 3 41 22 58 20 100 44 151 86 79 63 103 93 103 130 0 28
20 79 28 71 3 -3 -3 -34 -13 -70z m4499 -34 c112 -35 126 -37 126 -16 0 8 9
15 20 15 11 0 20 5 20 10 0 18 60 8 88 -15 4 -4 -37 -124 -53 -155 -22 -43
-53 -63 -112 -72 -69 -11 -86 -23 -52 -37 14 -6 18 -10 9 -11 -11 -1 -9 -4 5
-11 13 -6 -13 -8 -80 -5 -73 3 -117 11 -162 28 l-63 23 101 0 c94 0 102 2 120
23 20 26 43 96 36 115 -2 7 -14 -10 -25 -37 -12 -27 -30 -55 -40 -62 -26 -20
-94 -27 -169 -19 -60 6 -71 11 -105 45 -32 31 -38 45 -38 78 0 47 37 98 92
126 48 25 160 16 282 -23z m951 33 c14 -6 13 -8 -7 -18 -14 -7 -24 -22 -26
-39 -4 -34 -23 -31 -36 6 -16 43 20 69 69 51z m-2151 -86 l45 -52 -53 -32
c-83 -50 -208 -114 -222 -114 -17 0 -77 87 -69 100 8 14 229 147 247 149 3 1
27 -22 52 -51z m-535 -61 c-13 -10 -82 -54 -154 -97 -71 -42 -152 -91 -180
-108 -71 -43 -560 -328 -688 -401 -60 -33 -116 -61 -125 -61 -18 0 125 99 144
100 6 0 41 19 77 43 36 23 102 62 148 87 46 25 131 74 189 109 58 35 121 73
141 85 20 11 95 56 165 99 264 161 289 175 298 169 5 -3 -2 -14 -15 -25z
m1288 -19 c5 -7 22 -35 37 -63 22 -41 24 -45 6 -25 -16 18 -20 20 -16 7 3 -10
1 -27 -4 -37 -8 -14 -7 -25 2 -40 17 -28 -2 -40 -62 -38 -25 1 -65 -2 -90 -6
-82 -13 -123 22 -105 91 9 36 76 100 118 112 47 14 103 13 114 -1z m-642 -37
c-15 -26 -287 -175 -306 -169 -6 2 2 10 18 18 15 8 66 37 113 64 144 86 188
108 175 87z m-4530 -86 l80 -13 -75 -1 c-83 -1 -152 18 -197 56 -28 23 -28 23
42 -3 39 -14 106 -32 150 -39z m5333 -60 c23 -15 40 -30 37 -33 -2 -3 -11 0
-18 7 -8 6 -21 10 -28 8 -8 -2 -11 -2 -6 1 4 2 -10 20 -31 40 -21 21 -29 30
-18 21 12 -9 40 -29 64 -44z m-62 8 c-7 -7 -26 7 -26 19 0 6 6 6 15 -2 9 -7
13 -15 11 -17z m-5308 -67 c46 -14 99 -26 120 -26 27 0 33 -3 24 -12 -25 -25
-221 30 -267 75 -20 19 -20 19 10 4 17 -8 67 -26 113 -41z m5469 18 c-3 -3
-12 -4 -19 -1 -8 3 -5 6 6 6 11 1 17 -2 13 -5z m-1757 -92 c0 -17 -38 -41
-355 -228 -330 -194 -479 -277 -457 -253 17 18 133 90 215 134 37 19 89 52
114 71 26 20 57 40 68 44 12 4 61 32 110 62 50 29 112 65 138 78 26 14 69 42
95 62 46 36 72 46 72 30z m-3655 -64 c44 -11 96 -27 115 -35 l35 -14 -53 5
c-74 7 -163 34 -192 58 -20 16 -21 18 -5 13 11 -4 56 -17 100 -27z m5668 21
c46 -12 46 -11 -68 -164 -377 -503 -1068 -922 -1824 -1107 -101 -24 -130 -35
-151 -58 -40 -43 -122 -80 -192 -86 l-63 -5 90 52 c49 30 113 77 141 105 46
45 60 53 125 69 119 29 444 138 578 194 446 188 802 430 1105 752 49 52 116
131 150 176 33 46 63 83 66 83 3 0 22 -5 43 -11z m-4613 -68 c-8 -5 -31 -11
-50 -15 l-35 -6 35 14 c41 17 75 21 50 7z m-880 -130 l45 -9 -62 -1 c-41 -1
-81 6 -117 20 -81 30 -76 38 12 17 42 -10 97 -22 122 -27z m4889 3 c35 -29 39
-44 14 -44 -10 0 -28 16 -41 35 -26 41 -15 45 27 9z m-3984 -14 c-3 -5 -14
-10 -23 -10 -15 0 -15 2 -2 10 20 13 33 13 25 0z m3869 -61 c14 -11 26 -29 26
-40 0 -27 -19 -24 -30 5 -5 13 -18 27 -29 31 -12 3 -21 11 -21 16 0 16 26 10
54 -12z m-2666 -235 c73 -99 179 -240 237 -314 57 -74 104 -141 105 -148 0
-21 -29 -25 -55 -8 -14 9 -70 76 -124 149 -54 73 -146 193 -205 267 -58 74
-116 154 -128 177 -19 36 -20 45 -9 70 l13 28 16 -21 c10 -12 77 -102 150
-200z m412 196 c-8 -5 -19 -10 -25 -10 -5 0 -3 5 5 10 8 5 20 10 25 10 6 0 3
-5 -5 -10z m2158 -63 c20 -21 21 -26 7 -37 -12 -10 -16 -8 -24 12 -5 13 -16
30 -25 37 -9 7 -16 18 -16 23 0 13 31 -6 58 -35z m-118 -69 c31 -30 31 -32 14
-45 -17 -12 -20 -10 -34 19 -8 18 -18 35 -22 36 -11 5 -10 22 1 22 5 0 24 -14
41 -32z m-1910 2 c0 -5 -7 -10 -16 -10 -8 0 -12 5 -9 10 3 6 10 10 16 10 5 0
9 -4 9 -10z m-2510 -123 c60 -20 63 -22 32 -25 -18 -2 -63 6 -100 18 -66 21
-172 78 -172 92 0 3 39 -9 88 -29 48 -19 116 -45 152 -56z m4299 47 c32 -26
40 -44 20 -44 -10 0 -69 57 -69 66 0 11 22 1 49 -22z m-3769 -13 c0 -12 -51
-53 -58 -46 -6 6 38 55 50 55 4 0 8 -4 8 -9z m3031 -35 c60 -25 94 -81 83
-135 -5 -23 -10 -28 -28 -24 -17 4 -18 3 -6 -6 13 -9 12 -12 -5 -25 -11 -9
-25 -16 -31 -16 -6 0 -16 -10 -22 -22 -7 -15 -11 -18 -12 -8 -1 10 -4 9 -9 -4
-7 -19 -8 -19 -13 2 -4 12 -2 20 2 17 5 -3 11 3 15 14 9 29 -20 90 -49 100
-13 6 -27 19 -31 30 -3 11 -20 30 -37 42 l-30 22 23 13 c32 18 108 17 150 0z
m617 -29 c24 -22 29 -47 10 -47 -7 0 -24 19 -36 41 -24 42 -16 43 26 6z
m-3548 7 c0 -9 -61 -64 -71 -64 -18 0 -8 29 17 49 25 20 54 28 54 15z m2700
-36 c55 -29 78 -61 85 -118 3 -34 2 -39 -4 -20 -8 23 -9 23 -10 -11 -1 -35
-24 -79 -35 -68 -4 3 -2 18 3 32 7 17 7 28 1 32 -6 4 -10 -2 -10 -13 0 -11 -9
-31 -20 -45 -56 -70 -176 -26 -200 74 l-8 34 -1 -33 c-1 -18 4 -43 10 -55 8
-19 8 -20 -3 -7 -7 9 -28 26 -45 39 -39 27 -42 54 -10 102 29 44 98 79 157 79
28 0 63 -9 90 -22z m724 -53 c16 -24 15 -45 -2 -45 -7 0 -52 74 -52 85 0 12
38 -16 54 -40z m-3324 -4 c0 -5 -8 -19 -19 -32 -16 -20 -21 -22 -35 -10 -15
13 -15 15 0 32 18 19 54 26 54 10z m2775 -11 c3 -6 -1 -7 -9 -4 -18 7 -21 14
-7 14 6 0 13 -4 16 -10z m424 -49 c11 -19 5 -31 -14 -31 -11 0 -35 41 -35 61
0 15 38 -8 49 -30z m-139 -53 c0 -6 -7 -5 -15 2 -8 7 -15 17 -15 22 0 6 7 5
15 -2 8 -7 15 -17 15 -22z m-781 -14 c31 -16 61 -40 72 -58 20 -33 25 -111 9
-136 -7 -11 -10 -12 -10 -2 0 8 -12 0 -26 -17 -22 -26 -24 -34 -13 -47 10 -13
7 -20 -19 -44 -19 -17 -33 -23 -35 -16 -2 6 -8 8 -12 4 -4 -4 -2 -14 4 -22 18
-21 -7 -58 -36 -53 -15 3 -20 0 -16 -10 3 -7 10 -10 17 -7 6 3 -11 -15 -39
-40 -27 -25 -54 -45 -59 -46 -4 0 2 9 15 20 19 15 21 19 7 20 -9 0 -22 -13
-29 -30 -13 -28 -62 -60 -117 -75 l-24 -7 21 21 c12 12 26 21 31 21 6 0 10 5
10 10 0 7 -7 7 -21 -1 -15 -8 -28 -8 -43 -1 -11 6 -37 13 -56 15 l-35 6 30
-14 c17 -8 23 -14 13 -15 -9 0 -24 -3 -34 -7 -11 -4 -15 -3 -11 4 4 6 0 14 -9
17 -9 4 -13 2 -8 -5 4 -8 -1 -9 -17 -4 -36 12 -80 41 -72 49 4 4 0 4 -8 1 -9
-3 -22 1 -29 10 -7 8 -18 15 -26 15 -7 0 -16 5 -20 12 -4 7 -3 8 4 4 7 -4 12
-2 12 3 0 6 -10 11 -22 11 -53 1 -48 17 14 49 35 18 81 43 103 56 40 24 73 34
45 14 -12 -9 -11 -9 5 -3 11 4 32 8 47 8 40 1 53 21 83 119 20 70 35 98 67
133 64 69 147 83 237 38z m587 -12 c-10 -2 -22 0 -28 6 -6 6 0 7 19 4 21 -5
23 -7 9 -10z m-36 -23 c0 -11 -5 -17 -10 -14 -6 3 -17 -1 -26 -10 -9 -9 -19
-14 -22 -11 -8 8 19 36 34 36 8 0 14 5 14 10 0 6 2 10 5 10 3 0 5 -9 5 -21z
m-162 -42 c-5 -26 -13 -47 -18 -47 -4 0 -11 -15 -14 -33 -3 -18 -24 -60 -47
-95 l-41 -62 -74 0 c-41 0 -74 3 -74 6 0 3 10 20 23 37 19 27 22 45 22 118 0
86 0 87 23 78 48 -19 142 2 142 31 0 6 5 10 11 10 6 0 8 -9 4 -20 -6 -18 -3
-17 20 6 14 14 28 24 30 22 2 -2 -1 -25 -7 -51z m192 49 c0 -3 -4 -8 -10 -11
-5 -3 -10 -1 -10 4 0 6 5 11 10 11 6 0 10 -2 10 -4z m-522 -206 c-7 -11 -16
-20 -20 -20 -11 0 -10 9 5 25 18 21 29 18 15 -5z m-1543 -126 c138 -19 262
-46 390 -86 112 -34 298 -113 315 -133 10 -12 33 -175 26 -182 -2 -2 -77 21
-167 51 -321 106 -494 144 -831 181 l-58 6 0 57 c0 31 3 74 7 96 l6 39 101 -7
c56 -4 151 -14 211 -22z m1709 7 c4 -5 -3 -7 -14 -4 -23 6 -26 13 -6 13 8 0
17 -4 20 -9z m-108 -23 c4 -7 4 -10 -1 -6 -4 4 -13 2 -21 -5 -49 -44 -63 -44
-21 -1 25 27 33 29 43 12z m84 -12 c0 -6 -87 -56 -96 -56 -9 0 78 58 89 59 4
1 7 -1 7 -3z m-65 -16 c-3 -5 -12 -10 -18 -10 -7 0 -6 4 3 10 19 12 23 12 15
0z m-448 -141 c-19 -11 -55 0 -37 11 7 4 21 5 32 2 17 -4 18 -6 5 -13z m-300
-34 c15 -8 78 -38 138 -65 l110 -50 -103 0 -102 0 6 -42 c5 -32 16 -50 40 -71
33 -27 75 -105 88 -162 8 -33 8 -33 -49 38 -22 27 -64 66 -94 87 l-56 37 -10
122 c-5 66 -7 121 -3 121 3 0 19 -7 35 -15z m-802 -265 c3 -5 -1 -10 -9 -10
-9 0 -25 -13 -38 -30 -26 -35 -34 -37 -43 -10 -11 33 12 60 50 60 18 0 37 -4
40 -10z m667 -81 c20 -11 20 -11 -3 -23 -13 -6 -25 -22 -27 -34 -4 -29 -20
-28 -34 3 -9 21 -8 28 7 45 21 23 28 24 57 9z m-2952 -599 c0 -5 -2 -10 -4
-10 -3 0 -8 5 -11 10 -3 6 -1 10 4 10 6 0 11 -4 11 -10z m30 -36 c0 -8 -4 -12
-10 -9 -5 3 -10 10 -10 16 0 5 5 9 10 9 6 0 10 -7 10 -16z m7660 -168 c0 -2
-7 -7 -16 -10 -8 -3 -12 -2 -9 4 6 10 25 14 25 6z m-70 -46 c-8 -5 -19 -10
-25 -10 -5 0 -3 5 5 10 8 5 20 10 25 10 6 0 3 -5 -5 -10z m-750 -8 c0 -8 -53
-42 -66 -42 -5 0 7 11 26 25 40 28 40 28 40 17z m700 -6 c0 -3 -15 -14 -32
-26 l-33 -22 30 26 c31 27 35 29 35 22z m-480 -21 c-7 -8 -18 -15 -24 -15 -6
0 -2 7 8 15 25 19 32 19 16 0z m85 -5 c-3 -5 -12 -10 -18 -10 -7 0 -6 4 3 10
19 12 23 12 15 0z m110 0 c-3 -5 -12 -10 -18 -10 -7 0 -6 4 3 10 19 12 23 12
15 0z m-510 -19 c3 -6 -16 -22 -42 -37 -27 -16 -87 -54 -135 -86 -48 -32 -92
-58 -98 -58 -6 0 -8 -4 -5 -10 3 -5 0 -10 -9 -10 -8 0 -16 -5 -18 -11 -3 -8
-10 -8 -26 2 -12 8 -22 17 -22 20 0 9 57 29 63 23 2 -2 16 7 31 21 15 14 31
23 36 20 5 -3 12 0 16 6 4 8 3 9 -4 5 -7 -4 -12 -5 -12 -2 0 8 99 65 126 72
14 4 28 12 30 18 3 7 14 13 27 13 12 1 23 7 25 13 4 12 9 13 17 1z m550 -1
c-3 -5 -12 -10 -18 -10 -7 0 -6 4 3 10 19 12 23 12 15 0z m-405 -3 c0 -2 -9
-12 -20 -22 -24 -21 -27 -14 -4 9 15 15 24 20 24 13z m568 -9 c-19 -19 -107
-75 -185 -119 -141 -80 -257 -139 -272 -139 -6 0 -11 -4 -11 -8 0 -10 -170
-111 -230 -137 -25 -10 -57 -27 -71 -36 -14 -10 -38 -21 -55 -25 -16 -4 -35
-13 -42 -21 -18 -17 -32 -17 -32 2 0 8 8 15 18 15 10 0 28 7 40 16 13 9 85 48
160 86 128 65 167 88 149 88 -5 0 -22 -7 -38 -16 -17 -8 -33 -14 -35 -12 -2 2
17 14 42 26 25 12 43 18 39 12 -11 -17 7 -11 42 16 18 14 33 22 33 18 0 -4 10
2 23 14 13 12 27 19 30 15 4 -3 7 -1 7 6 0 7 5 9 10 6 6 -3 10 -1 10 4 0 6 3
10 8 10 4 -1 16 -1 27 0 17 1 18 3 5 12 -13 9 -13 10 0 8 19 -3 179 74 205 99
11 10 27 16 34 14 10 -3 12 0 8 11 -4 12 -2 14 10 10 12 -5 14 -3 8 7 -5 9 -4
11 3 6 7 -4 22 0 34 8 27 19 45 21 26 4z m-1011 -15 c-14 -14 -19 -15 -29 -4
-11 10 -10 11 3 6 10 -4 20 -2 24 4 3 6 9 11 13 11 3 0 -1 -8 -11 -17z m148
-9 c-15 -8 -41 -25 -57 -39 -17 -15 -44 -29 -61 -32 l-29 -6 23 -13 c16 -9 19
-13 9 -14 -9 0 -21 5 -28 12 -9 9 -15 9 -24 0 -9 -9 -8 -12 4 -12 9 0 20 -5
24 -12 4 -7 3 -8 -4 -4 -6 4 -22 1 -34 -5 -22 -12 -22 -11 -8 6 14 17 13 18
-2 12 -10 -3 -18 -5 -18 -3 0 8 102 69 115 69 7 0 32 15 56 32 24 18 48 30 52
28 5 -3 -4 -11 -18 -19z m474 23 c-28 -21 -59 -36 -59 -29 0 9 37 30 54 31 5
1 7 0 5 -2z m141 -2 c0 -2 -10 -9 -22 -15 -22 -11 -22 -10 -4 4 21 17 26 19
26 11z m120 0 c0 -2 -10 -9 -22 -15 -22 -11 -22 -10 -4 4 21 17 26 19 26 11z
m-420 -9 c0 -2 -7 -7 -16 -10 -8 -3 -12 -2 -9 4 6 10 25 14 25 6z m320 -11 c0
-2 -10 -9 -22 -15 -22 -11 -22 -10 -4 4 21 17 26 19 26 11z m-390 -15 c0 -5
-18 -19 -40 -30 -50 -26 -52 -18 -2 14 44 29 42 29 42 16z m59 -49 c-13 -11
-33 -23 -44 -27 -11 -3 -27 -12 -35 -19 -26 -22 -190 -107 -190 -98 0 11 64
50 175 108 50 26 94 51 99 56 5 5 12 7 14 4 3 -2 -6 -13 -19 -24z m127 14
c-11 -8 -25 -15 -30 -15 -6 1 0 7 14 15 32 19 40 18 16 0z m114 1 c0 -2 -7 -7
-16 -10 -8 -3 -12 -2 -9 4 6 10 25 14 25 6z m60 -1 c0 -2 -13 -11 -30 -20 -38
-19 -40 -11 -2 9 31 17 32 18 32 11z m-920 -20 c-7 -9 -15 -13 -19 -10 -3 3 1
10 9 15 21 14 24 12 10 -5z m766 0 c-20 -15 -36 -19 -36 -10 0 5 38 23 50 24
3 0 -4 -6 -14 -14z m-686 -22 c-8 -4 -21 -12 -29 -20 -18 -18 -28 -8 -11 12 7
8 22 15 34 14 14 0 16 -2 6 -6z m-110 -8 c0 -2 -9 -9 -20 -15 -12 -6 -20 -7
-20 -1 0 5 8 12 18 14 9 3 18 5 20 6 1 0 2 -1 2 -4z m810 -15 c0 -5 -2 -10 -4
-10 -3 0 -8 5 -11 10 -3 6 -1 10 4 10 6 0 11 -4 11 -10z m-881 -29 c-13 -11
-29 -20 -36 -21 -6 0 -13 -4 -15 -8 -3 -9 -93 -72 -103 -72 -3 0 -4 4 -1 9 4
5 0 12 -6 15 -7 3 -3 3 10 0 12 -3 22 -1 22 4 0 9 95 72 109 72 5 0 14 7 21
15 7 9 15 13 18 10 3 -2 -6 -13 -19 -24z m202 16 c-1 -12 -15 -9 -19 4 -3 6 1
10 8 8 6 -3 11 -8 11 -12z m657 -2 c-2 -1 -19 -10 -38 -20 l-35 -17 29 26 c16
14 33 23 38 20 5 -3 8 -7 6 -9z m-678 -10 c7 -9 10 -18 7 -22 -8 -7 -37 15
-37 28 0 14 16 11 30 -6z m-363 -117 c-6 -3 -15 -4 -19 -2 -4 3 -8 0 -8 -5 0
-6 -8 -11 -17 -11 -15 0 -14 2 3 19 13 12 21 15 26 7 5 -7 8 -3 8 9 0 16 2 17
10 5 6 -9 5 -17 -3 -22z m-97 7 c0 -8 -7 -15 -15 -15 -13 0 -14 3 -3 15 16 18
18 18 18 0z m861 -25 c-22 -19 -41 -26 -41 -15 0 5 51 34 60 34 3 0 -6 -9 -19
-19z m309 6 c0 -2 -8 -10 -17 -17 -16 -13 -17 -12 -4 4 13 16 21 21 21 13z
m460 0 c0 -3 -4 -8 -10 -11 -5 -3 -10 -1 -10 4 0 6 5 11 10 11 6 0 10 -2 10
-4z m-1600 -16 c0 -5 -4 -10 -10 -10 -5 0 -10 5 -10 10 0 6 5 10 10 10 6 0 10
-4 10 -10z m1560 -10 c0 -5 -5 -10 -11 -10 -5 0 -7 5 -4 10 3 6 8 10 11 10 2
0 4 -4 4 -10z m-306 -24 c-3 -9 -10 -13 -15 -10 -5 3 -3 11 4 19 15 16 19 13
11 -9z m276 2 c0 -13 -23 -5 -28 10 -2 7 2 10 12 6 9 -3 16 -11 16 -16z m-240
8 c0 -3 -4 -8 -10 -11 -5 -3 -10 -1 -10 4 0 6 5 11 10 11 6 0 10 -2 10 -4z
m-1431 -9 c-2 -1 -13 -9 -24 -17 -19 -14 -19 -14 -6 3 7 9 18 17 24 17 6 0 8
-1 6 -3z m1631 -17 c0 -5 -5 -10 -11 -10 -5 0 -7 5 -4 10 3 6 8 10 11 10 2 0
4 -4 4 -10z m-520 -10 c-8 -5 -19 -10 -25 -10 -5 0 -3 5 5 10 8 5 20 10 25 10
6 0 3 -5 -5 -10z m249 0 c-6 -5 -18 -6 -26 -3 -19 8 -16 11 13 11 17 0 22 -3
13 -8z m215 -28 c-16 -16 -32 -25 -35 -20 -3 5 -14 6 -25 2 -18 -6 -18 -6 1 9
11 8 22 11 25 6 3 -5 12 0 20 11 8 11 21 20 29 20 9 0 3 -11 -15 -28z m-510
-5 c-11 -6 -22 -15 -26 -21 -5 -8 -11 -7 -20 2 -9 9 -9 12 5 12 9 0 17 5 17
11 0 5 5 7 10 4 6 -3 10 -1 10 5 0 6 5 8 11 4 8 -4 5 -10 -7 -17z m256 9 c-30
-38 -100 -62 -100 -36 0 9 40 25 53 22 4 -1 18 4 30 13 27 19 33 19 17 1z
m-130 -10 c0 -2 -8 -10 -17 -17 -16 -13 -17 -12 -4 4 13 16 21 21 21 13z m815
-26 c-3 -5 -14 -10 -23 -10 -15 0 -15 2 -2 10 20 13 33 13 25 0z m-675 -15
c-7 -8 -16 -12 -21 -9 -5 3 -9 1 -9 -3 0 -5 -16 -16 -35 -25 -19 -8 -35 -12
-35 -8 0 4 16 15 35 26 19 10 35 21 35 24 0 3 9 6 21 7 17 2 18 -1 9 -12z
m-325 -30 c-27 -20 -60 -38 -72 -41 -13 -4 -20 -10 -17 -15 4 -8 -1 -10 -21
-9 -3 1 -13 -6 -21 -15 -9 -8 -21 -15 -27 -15 -6 0 -1 8 12 18 13 9 35 27 49
40 15 13 39 31 54 40 16 9 28 19 28 22 0 3 15 7 33 8 l32 2 -50 -35z m217 20
c0 -5 -5 -11 -11 -13 -6 -2 -11 4 -11 13 0 9 5 15 11 13 6 -2 11 -8 11 -13z
m-37 -65 c-3 -5 -1 -10 6 -10 7 0 10 -3 6 -6 -9 -9 -28 6 -22 17 4 5 8 9 11 9
3 0 2 -4 -1 -10z m95 -10 c0 -5 -2 -10 -4 -10 -2 0 -12 -3 -22 -7 -16 -6 -17
-5 -4 10 17 19 30 22 30 7z m-1657 -15 c-3 -9 -8 -14 -10 -11 -3 3 -2 9 2 15
9 16 15 13 8 -4z m1524 -19 c-15 -7 -24 -15 -21 -19 4 -4 2 -7 -4 -7 -19 0
-14 28 6 33 35 9 46 5 19 -7z m-1557 -6 c0 -5 -4 -10 -10 -10 -5 0 -10 5 -10
10 0 6 5 10 10 10 6 0 10 -4 10 -10z m2380 0 c0 -5 -5 -10 -11 -10 -5 0 -7 5
-4 10 3 6 8 10 11 10 2 0 4 -4 4 -10z m-130 -14 c0 -2 -8 -10 -17 -17 -16 -13
-17 -12 -4 4 13 16 21 21 21 13z"/>
<path d="M4193 9762 c2 -12 9 -28 16 -35 11 -10 12 -7 6 13 -10 34 -27 51 -22
22z"/>
<path d="M4230 9717 c0 -3 14 -21 30 -39 17 -18 30 -28 30 -22 0 6 -13 23 -30
39 -16 16 -30 26 -30 22z"/>
<path d="M4230 9490 c-9 -6 -10 -10 -3 -10 6 0 15 5 18 10 8 12 4 12 -15 0z"/>
<path d="M3238 9130 c-29 -8 -98 -48 -98 -56 0 -2 22 7 50 21 27 14 67 29 87
34 27 6 30 9 13 9 -14 0 -37 -3 -52 -8z"/>
<path d="M3330 9136 c0 -9 30 -14 35 -6 4 6 -3 10 -14 10 -12 0 -21 -2 -21 -4z"/>
<path d="M3250 9100 c-8 -5 -10 -10 -5 -10 6 0 17 5 25 10 8 5 11 10 5 10 -5
0 -17 -5 -25 -10z"/>
<path d="M3188 9074 c-16 -8 -28 -17 -28 -19 0 -6 32 6 55 22 26 18 7 16 -27
-3z"/>
<path d="M2959 8946 c-106 -64 -196 -135 -255 -203 -65 -75 -46 -63 58 39 38
37 111 95 163 129 81 53 105 70 93 69 -2 -1 -28 -16 -59 -34z"/>
<path d="M1995 8350 c-445 -221 -501 -247 -512 -233 -7 9 -15 14 -18 11 -3 -2
4 -13 15 -23 19 -17 34 -10 522 235 277 139 505 254 507 256 19 18 -78 -29
-514 -246z"/>
<path d="M1260 8408 c55 -76 114 -149 99 -123 -16 26 -150 205 -154 205 -3 0
22 -37 55 -82z"/>
<path d="M3515 8164 c-124 -28 -267 -101 -352 -180 l-58 -54 120 60 c101 50
185 89 385 178 l25 11 -30 -1 c-16 0 -57 -6 -90 -14z"/>
<path d="M3497 7773 c-4 -3 -2 -12 4 -19 7 -9 3 -16 -18 -26 -15 -7 -34 -25
-42 -40 -13 -23 -13 -30 -1 -53 16 -31 77 -65 114 -65 18 0 30 -9 41 -30 22
-42 19 -50 -19 -50 -40 0 -53 -14 -35 -36 9 -11 22 -14 43 -10 19 4 35 1 46
-9 16 -15 21 -13 63 25 53 48 60 67 40 108 -19 40 -58 58 -135 61 -10 1 -24
16 -33 37 -19 47 -21 44 19 44 39 0 53 14 36 35 -9 11 -23 13 -51 9 -30 -5
-40 -3 -45 10 -6 17 -16 20 -27 9z m49 -109 c18 -43 13 -51 -24 -38 -30 11
-40 37 -22 59 19 23 30 18 46 -21z m126 -101 c23 -21 23 -36 -3 -59 -21 -19
-21 -18 -40 5 -27 33 -25 71 3 71 12 0 30 -7 40 -17z"/>
<path d="M6486 6431 c-17 -19 -17 -20 8 -36 16 -11 33 -14 48 -9 19 6 19 3 -7
-19 -40 -35 -27 -34 18 2 l36 28 -27 27 c-33 31 -53 33 -76 7z"/>
<path d="M2900 6344 c-25 -20 -52 -40 -60 -45 -9 -6 -11 -12 -5 -15 6 -2 34
-20 63 -39 l52 -34 0 85 c0 46 -1 84 -2 83 -2 0 -23 -16 -48 -35z"/>
<path d="M7207 5202 c-25 -25 -36 -27 -120 -31 -67 -4 -81 -6 -52 -10 73 -11
155 4 183 33 14 14 24 28 21 30 -3 3 -17 -7 -32 -22z"/>
<path d="M3686 4251 c-3 -5 1 -11 9 -15 15 -6 29 7 18 18 -9 9 -21 8 -27 -3z"/>
<path d="M4434 3944 c-19 -41 -34 -80 -33 -87 0 -7 9 6 19 28 43 95 59 135 54
135 -3 0 -21 -34 -40 -76z"/>
<path d="M4420 3790 c-8 -5 -10 -10 -5 -10 6 0 17 5 25 10 8 5 11 10 5 10 -5
0 -17 -5 -25 -10z"/>
<path d="M4324 3772 c5 -8 66 -4 66 4 0 2 -16 4 -36 4 -19 0 -33 -4 -30 -8z"/>
<path d="M4091 2654 c0 -11 3 -14 6 -6 3 7 2 16 -1 19 -3 4 -6 -2 -5 -13z"/>
<path d="M4091 2604 c0 -11 3 -14 6 -6 3 7 2 16 -1 19 -3 4 -6 -2 -5 -13z"/>
<path d="M4101 2544 c0 -11 3 -14 6 -6 3 7 2 16 -1 19 -3 4 -6 -2 -5 -13z"/>
<path d="M4132 2393 c-9 -4 -7 -14 9 -41 33 -55 39 -59 39 -28 0 15 -4 25 -9
21 -12 -7 -34 32 -26 45 7 11 6 11 -13 3z"/>
<path d="M2585 3690 c3 -5 14 -10 23 -10 15 0 15 2 2 10 -20 13 -33 13 -25 0z"/>
<path d="M7926 3532 c-3 -5 1 -9 9 -9 8 0 12 4 9 9 -3 4 -7 8 -9 8 -2 0 -6 -4
-9 -8z"/>
<path d="M5966 2333 c-10 -52 -10 -133 1 -144 17 -17 111 -15 129 2 13 14 10
15 -38 12 -75 -5 -81 2 -79 86 2 73 -3 91 -13 44z"/>
<path d="M6101 2179 c-31 -25 -23 -33 9 -9 14 10 23 21 20 23 -3 3 -16 -3 -29
-14z"/>
<path d="M5530 2036 c0 -2 7 -6 15 -10 8 -3 15 -1 15 4 0 6 -7 10 -15 10 -8 0
-15 -2 -15 -4z"/>
<path d="M5638 1963 c7 -3 16 -2 19 1 4 3 -2 6 -13 5 -11 0 -14 -3 -6 -6z"/>
<path d="M5798 1963 c7 -3 16 -2 19 1 4 3 -2 6 -13 5 -11 0 -14 -3 -6 -6z"/>
<path d="M6465 2380 c-3 -5 -1 -10 4 -10 6 0 11 5 11 10 0 6 -2 10 -4 10 -3 0
-8 -4 -11 -10z"/>
<path d="M8886 10225 c-17 -13 -18 -15 -3 -15 9 0 17 4 17 9 0 5 8 12 18 14
12 3 13 5 2 6 -8 0 -24 -6 -34 -14z"/>
<path d="M8939 10187 c-82 -42 -228 -134 -184 -115 36 14 65 33 65 40 0 5 5 6
10 3 6 -3 10 -1 10 4 0 6 6 11 13 11 6 0 54 18 105 40 51 22 102 40 115 40 17
-1 14 -4 -13 -14 -97 -37 -285 -134 -276 -143 3 -3 25 6 50 21 52 30 64 33 45
9 -12 -14 -10 -14 14 1 15 10 27 23 27 28 0 5 10 6 23 3 12 -4 17 -3 11 2 -8
5 22 22 76 44 49 20 87 32 84 25 -3 -7 -63 -41 -134 -76 -72 -35 -130 -68
-130 -72 0 -4 51 18 113 47 61 30 117 55 122 55 11 0 -112 -72 -225 -132 -63
-33 -129 -79 -95 -67 9 4 272 133 368 181 20 10 37 16 37 14 0 -6 -97 -61
-295 -166 -138 -73 -132 -70 -111 -70 11 0 50 16 88 35 94 49 118 58 112 40
-3 -8 -12 -11 -21 -8 -10 4 -14 2 -10 -4 4 -6 -9 -23 -27 -37 -38 -29 -52 -32
-58 -14 -3 9 -6 9 -12 0 -4 -7 -2 -12 6 -12 7 -1 0 -7 -17 -15 l-30 -13 32 1
c18 1 33 5 33 10 0 4 3 6 8 5 15 -3 62 14 57 22 -3 4 2 11 11 14 10 4 13 2 8
-6 -5 -8 -2 -9 10 -5 10 4 20 7 22 7 3 0 2 5 -1 10 -3 6 -2 10 4 10 40 0 0
-42 -53 -56 -14 -3 -26 -10 -26 -15 0 -5 -7 -6 -15 -3 -11 5 -13 2 -9 -10 4
-12 10 -13 24 -6 35 19 35 10 1 -11 -27 -16 -36 -18 -43 -7 -7 10 -8 8 -4 -4
3 -10 2 -18 -2 -18 -5 0 -17 -7 -28 -15 -36 -28 73 23 128 59 29 20 57 36 63
36 5 0 -2 -8 -15 -17 -14 -9 -41 -31 -61 -48 -20 -18 -42 -35 -50 -37 -8 -3
-11 -8 -8 -12 3 -3 19 0 35 9 32 17 58 20 34 5 -12 -8 -12 -12 -2 -18 9 -6 5
-12 -14 -21 -35 -15 -25 -25 11 -11 16 6 34 9 41 6 8 -3 16 -1 19 4 4 6 11 10
16 10 21 0 -3 -20 -54 -45 -79 -40 -80 -49 -2 -20 38 15 72 28 75 30 4 2 7 -2
7 -10 0 -8 -2 -13 -5 -10 -5 5 -62 -23 -62 -31 0 -2 9 0 19 6 25 13 34 13 26
0 -3 -5 -1 -10 5 -10 6 0 9 -4 6 -8 -3 -5 9 -7 27 -5 32 3 32 3 7 -9 -14 -7
-27 -15 -30 -18 -3 -4 -14 -10 -24 -13 -10 -4 -16 -10 -13 -13 3 -3 29 7 58
22 44 22 51 23 39 8 -8 -11 -19 -22 -25 -26 -6 -5 -6 -8 2 -8 6 0 19 7 27 16
25 24 40 12 16 -14 -20 -21 -15 -32 6 -13 5 4 23 11 39 15 28 6 29 5 11 -9
-11 -8 -25 -15 -32 -15 -7 0 -15 -4 -19 -10 -3 -5 15 -3 40 4 25 8 42 10 39 5
-3 -5 2 -9 10 -9 8 0 18 5 21 10 3 6 12 10 18 10 7 0 -8 -14 -33 -31 -25 -17
-37 -28 -27 -25 11 3 31 8 45 11 l27 5 -27 -11 c-16 -6 -28 -15 -28 -21 0 -6
6 -8 13 -5 6 3 21 8 32 12 17 6 18 5 5 -5 -12 -10 -11 -11 10 -6 24 5 24 4 6
-9 -14 -11 -22 -12 -27 -4 -4 8 -9 8 -13 1 -11 -18 32 -24 69 -11 19 7 35 17
35 22 0 4 5 5 11 2 5 -4 -8 -18 -30 -33 -49 -32 -52 -44 -9 -31 46 13 55 11
32 -6 -18 -14 -17 -14 9 -5 40 14 46 13 42 -9 -3 -18 -1 -19 23 -10 l27 9 -25
-19 -25 -20 38 8 c34 8 54 -1 25 -12 -7 -2 -10 -7 -7 -11 3 -4 18 -2 32 3 19
8 25 7 22 -2 -3 -7 -1 -18 4 -26 8 -12 14 -13 37 -3 48 23 37 4 -15 -25 -28
-15 -51 -32 -51 -37 0 -5 6 -4 13 1 18 15 109 44 102 33 -3 -5 0 -12 5 -15 7
-5 5 -12 -7 -22 -17 -13 -16 -13 4 -4 12 6 31 11 43 11 17 0 19 -2 8 -14 -7
-8 -16 -12 -19 -11 -10 7 -123 -61 -127 -76 -2 -10 -1 -11 5 -2 9 13 103 56
103 47 0 -3 7 2 16 10 18 18 49 22 38 5 -4 -7 -1 -10 7 -7 8 3 13 10 12 15 -1
6 10 8 24 5 l26 -5 -27 -14 c-14 -7 -26 -19 -26 -26 0 -8 4 -6 10 3 5 8 10 12
10 7 0 -4 14 -1 30 8 17 9 30 12 30 7 0 -5 -16 -16 -36 -26 -20 -9 -34 -19
-31 -22 3 -3 13 -1 24 4 44 23 96 42 100 38 3 -2 -19 -18 -49 -35 -53 -31 -61
-43 -10 -17 27 14 92 28 92 20 0 -2 -36 -22 -80 -44 -44 -22 -80 -42 -80 -45
0 -5 22 3 95 35 80 35 95 40 95 32 0 -5 -16 -16 -36 -26 -20 -9 -34 -20 -30
-23 3 -3 11 -1 18 4 7 6 22 13 33 15 11 3 29 9 40 13 17 6 16 3 -5 -16 -22
-19 -22 -21 -5 -17 11 3 29 9 40 13 32 13 -53 -44 -91 -60 -19 -8 -34 -16 -34
-19 0 -3 15 1 33 8 54 22 80 29 74 19 -4 -6 19 -2 50 8 31 11 59 19 62 19 9
-1 -101 -70 -128 -81 -13 -5 -21 -12 -18 -15 3 -4 27 4 52 16 25 12 53 19 62
15 15 -5 15 -7 3 -15 -24 -15 7 -12 55 5 51 19 60 19 45 0 -11 -13 -8 -14 21
-9 l34 6 -45 -31 c-25 -17 -40 -31 -34 -31 5 0 14 4 20 9 5 5 36 18 69 30 38
13 53 15 40 6 -61 -44 -62 -45 -13 -27 l47 16 1 258 c0 212 -2 258 -13 258 -8
0 -42 18 -76 40 -34 22 -65 40 -69 40 -5 0 -35 16 -68 36 -32 21 -104 62 -159
92 -55 30 -119 68 -142 83 -23 16 -46 29 -51 29 -5 0 -36 17 -68 38 -33 21
-99 63 -149 92 -49 29 -103 64 -118 77 -16 13 -32 21 -37 18 -10 -6 -72 64
-65 74 2 5 -2 14 -9 21 -8 6 -18 25 -21 41 -7 29 -7 29 -79 29 -69 0 -80 -3
-177 -53z m191 -31 c0 -3 -4 -8 -10 -11 -5 -3 -10 -1 -10 4 0 6 5 11 10 11 6
0 10 -2 10 -4z m-130 -325 c0 -5 -7 -12 -16 -15 -14 -5 -15 -4 -4 9 14 17 20
19 20 6z m8 -45 c-7 -8 -15 -12 -17 -11 -5 6 10 25 20 25 5 0 4 -6 -3 -14z
m80 -50 c-7 -8 -17 -12 -22 -9 -4 3 -2 9 5 14 22 13 31 11 17 -5z m-33 -56 c3
-5 1 -10 -4 -10 -6 0 -11 5 -11 10 0 6 2 10 4 10 3 0 8 -4 11 -10z m906 -560
c-24 -21 -41 -26 -41 -12 0 5 12 13 28 19 39 15 40 15 13 -7z m109 -30 c-19
-13 -30 -13 -30 0 0 6 10 10 23 10 18 0 19 -2 7 -10z m-22 -19 c10 -6 8 -10
-9 -14 -26 -7 -42 0 -34 14 8 11 26 11 43 0z"/>
<path d="M9220 10222 c0 -32 57 -110 107 -146 54 -39 117 -78 343 -209 238
-138 557 -317 566 -317 2 0 4 55 4 123 l0 123 -57 33 c-32 19 -75 45 -95 58
-21 12 -40 23 -43 23 -2 0 -28 15 -57 34 -29 18 -125 73 -213 121 -257 141
-269 147 -290 161 -14 10 -55 14 -142 14 -112 0 -123 -2 -123 -18z"/>
<path d="M9716 10231 c11 -11 513 -311 520 -311 2 0 4 11 4 23 0 20 -23 37
-132 102 -73 43 -177 105 -230 137 -72 43 -107 58 -135 58 -22 0 -33 -4 -27
-9z"/>
<path d="M8830 10220 c-9 -6 -10 -10 -3 -10 6 0 15 5 18 10 8 12 4 12 -15 0z"/>
<path d="M8940 10221 c0 -4 -10 -13 -22 -19 -14 -6 -17 -11 -8 -11 8 0 26 6
39 13 19 11 21 14 7 19 -9 4 -16 3 -16 -2z"/>
<path d="M8608 10183 c7 -3 16 -2 19 1 4 3 -2 6 -13 5 -11 0 -14 -3 -6 -6z"/>
<path d="M8570 10170 c-9 -6 -10 -10 -3 -10 6 0 15 5 18 10 8 12 4 12 -15 0z"/>
<path d="M9260 10106 c0 -2 8 -10 18 -17 15 -13 16 -12 3 4 -13 16 -21 21 -21
13z"/>
<path d="M8760 10040 c0 -5 5 -10 11 -10 5 0 7 5 4 10 -3 6 -8 10 -11 10 -2 0
-4 -4 -4 -10z"/>
<path d="M8779 10003 c-13 -15 -12 -15 11 -3 34 17 36 20 18 20 -9 0 -22 -7
-29 -17z"/>
<path d="M8889 9939 l-24 -20 30 17 c39 24 40 24 28 24 -6 0 -21 -9 -34 -21z"/>
<path d="M277 9837 c-3 -8 -22 -22 -44 -32 -96 -45 -219 -107 -227 -116 -5 -5
-7 -11 -4 -15 10 -10 267 126 279 148 6 11 9 22 6 24 -2 3 -7 -1 -10 -9z"/>
<path d="M8778 9773 c7 -3 16 -2 19 1 4 3 -2 6 -13 5 -11 0 -14 -3 -6 -6z"/>
<path d="M8853 9773 c-19 -7 -16 -19 6 -19 11 0 17 5 14 13 -3 7 -6 13 -7 12
0 0 -7 -3 -13 -6z"/>
<path d="M8875 9719 c-11 -16 -1 -19 13 -3 7 8 8 14 3 14 -5 0 -13 -5 -16 -11z"/>
<path d="M597 9679 c7 -7 15 -10 18 -7 3 3 -2 9 -12 12 -14 6 -15 5 -6 -5z"/>
<path d="M267 9645 c-4 -8 21 -46 61 -93 288 -341 399 -466 426 -483 17 -10
45 -19 62 -19 30 0 578 262 616 295 11 9 18 27 17 47 l-1 33 -7 -30 c-7 -34
18 -20 -372 -210 -129 -63 -244 -115 -254 -115 -44 0 -79 33 -276 266 -50 59
-118 138 -152 176 -34 38 -74 87 -88 108 -19 28 -29 36 -32 25z"/>
<path d="M9170 9500 c0 -5 7 -7 15 -4 8 4 15 8 15 10 0 2 -7 4 -15 4 -8 0 -15
-4 -15 -10z"/>
<path d="M9218 9463 c7 -3 16 -2 19 1 4 3 -2 6 -13 5 -11 0 -14 -3 -6 -6z"/>
<path d="M9175 9450 c-3 -6 1 -7 9 -4 18 7 21 14 7 14 -6 0 -13 -4 -16 -10z"/>
<path d="M9355 9420 c-3 -6 1 -7 9 -4 18 7 21 14 7 14 -6 0 -13 -4 -16 -10z"/>
<path d="M9481 9363 c8 -4 3 -12 -12 -25 l-24 -19 28 12 c27 12 32 31 9 35 -9
2 -9 1 -1 -3z"/>
<path d="M780 9261 c0 -6 4 -13 10 -16 6 -3 7 1 4 9 -7 18 -14 21 -14 7z"/>
<path d="M9520 9260 c-9 -6 -10 -10 -3 -10 6 0 15 5 18 10 8 12 4 12 -15 0z"/>
<path d="M9760 9039 c0 -5 5 -7 10 -4 6 3 10 8 10 11 0 2 -4 4 -10 4 -5 0 -10
-5 -10 -11z"/>
<path d="M9730 9020 c-9 -6 -10 -10 -3 -10 6 0 15 5 18 10 8 12 4 12 -15 0z"/>
<path d="M9800 8975 c-14 -8 -20 -14 -15 -14 6 0 21 6 35 14 14 8 21 14 15 14
-5 0 -21 -6 -35 -14z"/>
<path d="M645 8971 c-15 -14 -591 -300 -620 -307 -30 -7 -33 -24 -4 -24 18 0
612 291 633 310 4 5 7 13 5 20 -3 7 -8 7 -14 1z"/>
<path d="M9730 8940 c-9 -6 -10 -10 -3 -10 6 0 15 5 18 10 8 12 4 12 -15 0z"/>
<path d="M8945 8920 c-3 -6 1 -7 9 -4 18 7 21 14 7 14 -6 0 -13 -4 -16 -10z"/>
<path d="M9655 8900 c-3 -6 1 -7 9 -4 18 7 21 14 7 14 -6 0 -13 -4 -16 -10z"/>
<path d="M8890 8890 c-9 -6 -10 -10 -3 -10 6 0 15 5 18 10 8 12 4 12 -15 0z"/>
<path d="M9615 8880 c-3 -6 1 -7 9 -4 18 7 21 14 7 14 -6 0 -13 -4 -16 -10z"/>
<path d="M9526 8838 c3 -5 10 -6 15 -3 13 9 11 12 -6 12 -8 0 -12 -4 -9 -9z"/>
<path d="M8650 8760 c-8 -5 -10 -10 -5 -10 6 0 17 5 25 10 8 5 11 10 5 10 -5
0 -17 -5 -25 -10z"/>
<path d="M757 2007 c-21 -13 -35 -26 -31 -29 7 -7 39 8 62 30 25 23 7 22 -31
-1z"/>
<path d="M795 1979 c-16 -11 -34 -21 -40 -23 -5 -2 -6 -7 -2 -12 4 -5 12 -2
17 6 6 8 10 11 10 7 0 -5 7 -2 15 6 8 9 20 17 27 20 7 2 11 7 8 9 -3 3 -18 -3
-35 -13z"/>
<path d="M681 1965 c-17 -9 -20 -14 -10 -17 8 -3 0 -8 -18 -12 -17 -4 -37 -14
-44 -22 -6 -8 -17 -14 -24 -14 -6 0 -31 -14 -53 -30 -23 -17 -42 -27 -42 -23
0 5 -4 4 -8 -2 -8 -11 -37 -29 -102 -61 -25 -13 -41 -23 -35 -23 16 -1 215
101 215 110 0 4 7 5 17 2 10 -4 14 -2 10 4 -3 5 15 20 41 31 57 27 98 57 86
65 -5 3 -20 -1 -33 -8z"/>
<path d="M310 1940 c-8 -5 -10 -10 -5 -10 6 0 17 5 25 10 8 5 11 10 5 10 -5 0
-17 -5 -25 -10z"/>
<path d="M408 1943 c7 -3 16 -2 19 1 4 3 -2 6 -13 5 -11 0 -14 -3 -6 -6z"/>
<path d="M770 1920 c-8 -5 -10 -10 -5 -10 6 0 17 5 25 10 8 5 11 10 5 10 -5 0
-17 -5 -25 -10z"/>
<path d="M657 1888 c-21 -11 -36 -22 -33 -25 5 -6 63 24 71 37 8 13 7 13 -38
-12z"/>
<path d="M265 1840 c-3 -6 1 -7 9 -4 18 7 21 14 7 14 -6 0 -13 -4 -16 -10z"/>
<path d="M540 1820 c-47 -31 -49 -38 -5 -18 14 6 25 15 25 20 0 4 7 8 15 8 8
0 15 5 15 10 0 14 1 14 -50 -20z"/>
<path d="M217 1823 c-13 -12 -7 -25 6 -14 8 6 17 8 20 4 4 -3 7 -1 7 5 0 13
-22 16 -33 5z"/>
<path d="M840 1810 c-8 -5 -10 -10 -5 -10 6 0 17 5 25 10 8 5 11 10 5 10 -5 0
-17 -5 -25 -10z"/>
<path d="M465 1780 c-3 -6 1 -7 9 -4 18 7 21 14 7 14 -6 0 -13 -4 -16 -10z"/>
<path d="M770 1780 c-8 -5 -10 -10 -5 -10 6 0 17 5 25 10 8 5 11 10 5 10 -5 0
-17 -5 -25 -10z"/>
<path d="M110 1760 c-8 -5 -10 -10 -5 -10 6 0 17 5 25 10 8 5 11 10 5 10 -5 0
-17 -5 -25 -10z"/>
<path d="M425 1760 c-3 -5 -1 -10 4 -10 6 0 11 5 11 10 0 6 -2 10 -4 10 -3 0
-8 -4 -11 -10z"/>
<path d="M694 1745 c-10 -8 -14 -14 -9 -15 15 0 40 18 34 24 -3 3 -14 -1 -25
-9z"/>
<path d="M215 1740 c-8 -13 5 -13 25 0 13 8 13 10 -2 10 -9 0 -20 -4 -23 -10z"/>
<path d="M347 1730 c-20 -10 -51 -30 -67 -44 -17 -14 -63 -42 -102 -63 -39
-20 -66 -39 -60 -41 6 -2 23 4 39 13 97 55 128 75 138 89 7 9 17 16 24 16 6 0
11 5 11 10 0 6 6 10 13 10 19 1 74 28 57 29 -8 0 -32 -8 -53 -19z"/>
<path d="M774 1734 c-18 -14 -18 -14 6 -3 31 14 36 19 24 19 -6 0 -19 -7 -30
-16z"/>
<path d="M460 1730 c-9 -6 -10 -10 -3 -10 6 0 15 5 18 10 8 12 4 12 -15 0z"/>
<path d="M390 1700 c-8 -5 -10 -10 -5 -10 6 0 17 5 25 10 8 5 11 10 5 10 -5 0
-17 -5 -25 -10z"/>
<path d="M317 1671 c-23 -15 -25 -19 -12 -25 9 -3 13 -2 10 4 -3 5 9 16 27 24
18 8 26 15 18 15 -8 1 -28 -7 -43 -18z"/>
<path d="M468 1683 c7 -3 16 -2 19 1 4 3 -2 6 -13 5 -11 0 -14 -3 -6 -6z"/>
<path d="M345 1630 c-3 -6 1 -7 9 -4 18 7 21 14 7 14 -6 0 -13 -4 -16 -10z"/>
<path d="M255 1620 c-3 -5 -2 -10 4 -10 5 0 13 5 16 10 3 6 2 10 -4 10 -5 0
-13 -4 -16 -10z"/>
<path d="M310 1610 c-9 -6 -10 -10 -3 -10 6 0 15 5 18 10 8 12 4 12 -15 0z"/>
<path d="M215 1600 c-3 -6 1 -7 9 -4 18 7 21 14 7 14 -6 0 -13 -4 -16 -10z"/>
<path d="M320 1580 c-8 -5 -10 -10 -5 -10 6 0 17 5 25 10 8 5 11 10 5 10 -5 0
-17 -5 -25 -10z"/>
<path d="M80 1570 c-9 -6 -10 -10 -3 -10 6 0 15 5 18 10 8 12 4 12 -15 0z"/>
<path d="M350 1550 c-23 -7 -23 -8 -3 -9 12 -1 25 4 28 9 3 6 5 10 3 9 -2 -1
-14 -5 -28 -9z"/>
<path d="M96 1538 c-10 -6 -28 -19 -40 -29 -12 -10 -30 -25 -41 -33 -11 -9
-15 -16 -10 -16 8 0 84 58 114 86 8 7 -4 4 -23 -8z"/>
<path d="M740 1515 c-14 -8 -20 -14 -15 -14 6 0 21 6 35 14 14 8 21 14 15 14
-5 0 -21 -6 -35 -14z"/>
<path d="M39 1319 c-23 -19 -23 -20 -2 -10 12 6 25 16 28 21 10 16 -1 12 -26
-11z"/>
<path d="M860 1220 c-9 -6 -10 -10 -3 -10 6 0 15 5 18 10 8 12 4 12 -15 0z"/>
<path d="M920 1010 c-20 -22 -42 -40 -47 -40 -6 0 -13 -16 -15 -35 -2 -19 -1
-35 2 -35 3 0 25 20 49 44 29 30 39 45 29 48 -9 4 -7 12 11 32 14 14 21 26 16
26 -4 0 -25 -18 -45 -40z m10 -29 c0 -5 -7 -11 -14 -14 -10 -4 -13 -1 -9 9 6
15 23 19 23 5z"/>
<path d="M10 1010 c-18 -12 -2 -12 25 0 13 6 15 9 5 9 -8 0 -22 -4 -30 -9z"/>
<path d="M883 802 c5 -68 -7 -76 -17 -12 -5 34 -9 38 -20 28 -8 -7 -13 -15
-11 -18 2 -3 -3 -11 -11 -18 -8 -7 -14 -10 -14 -7 0 4 -7 0 -15 -8 -16 -17
-21 -62 -10 -92 5 -16 3 -15 -14 5 -24 29 -27 17 -7 -22 13 -24 13 -28 0 -28
-8 0 -14 6 -14 14 0 23 -19 29 -27 9 -4 -10 -17 -34 -29 -54 -13 -20 -20 -40
-16 -44 4 -4 -2 -6 -13 -5 -39 4 -50 -1 -25 -12 l25 -11 -28 -6 -28 -6 22 -19
c20 -17 20 -19 6 -28 -10 -5 -17 -15 -17 -22 0 -8 -7 -17 -16 -20 -8 -3 -14
-14 -12 -23 2 -10 -3 -23 -12 -30 -13 -11 -11 -12 13 -13 17 0 26 -4 22 -11
-4 -6 -13 -8 -20 -6 -11 5 -115 -39 -115 -48 0 -2 7 -2 15 1 8 4 22 1 30 -6 8
-6 20 -10 27 -7 8 4 5 8 -10 13 -21 6 -21 7 -5 20 21 16 59 18 68 5 3 -5 -7
-12 -22 -14 -20 -3 -16 -4 14 -6 50 -1 64 -15 20 -18 -18 -2 -33 -7 -35 -13
-2 -5 -11 -10 -20 -11 -18 -1 -11 -5 46 -24 34 -11 26 -32 -23 -58 l-30 -16
30 4 c24 4 34 0 48 -20 10 -14 13 -25 7 -25 -6 0 -13 7 -16 15 -4 8 -13 15
-21 15 -12 0 -9 -9 11 -35 34 -44 26 -45 -18 -1 -33 31 -46 35 -46 14 0 -5 5
-6 12 -2 8 5 9 2 5 -10 -4 -10 -7 -19 -7 -22 0 -2 -8 -1 -17 3 -16 6 -16 4 2
-16 14 -16 26 -21 45 -17 14 3 19 3 13 0 -18 -8 -16 -24 2 -24 8 0 15 -4 15
-10 0 -19 -32 -10 -69 19 -35 27 -58 30 -73 7 -4 -6 -10 -8 -13 -4 -4 3 10 23
30 43 36 36 42 62 8 34 -20 -16 -60 -39 -68 -39 -3 0 -5 5 -5 10 0 6 7 10 15
10 8 0 17 11 21 25 3 14 9 23 13 21 4 -3 13 -1 20 4 10 6 8 9 -8 15 -22 7 -29
25 -9 25 9 0 9 3 0 12 -17 17 -15 28 6 28 13 0 14 2 4 9 -11 7 -11 9 2 14 9 4
24 4 34 1 16 -5 16 -5 0 5 -20 13 -71 -6 -61 -22 4 -6 0 -8 -11 -4 -10 4 -20
7 -23 7 -3 0 5 9 18 20 26 21 19 26 -12 10 -12 -7 -19 -7 -19 -1 0 6 12 17 28
25 15 8 21 15 13 16 -11 0 -11 3 -1 15 9 10 9 15 1 15 -6 0 -11 -4 -11 -10 0
-5 -8 -10 -17 -10 -25 0 20 44 71 70 30 15 35 20 19 20 -12 0 -25 -5 -28 -10
-4 -6 -10 -8 -15 -5 -4 2 -19 -5 -34 -16 -14 -11 -26 -16 -26 -10 0 6 5 11 12
11 6 0 8 3 5 7 -9 8 57 53 79 53 25 0 3 21 -24 23 -11 0 -20 6 -19 12 1 5 -8
9 -20 7 -32 -4 -38 16 -9 30 38 17 34 42 -4 35 -29 -6 -41 5 -19 19 7 4 -2 13
-20 21 -17 9 -31 19 -31 24 0 4 23 16 51 27 l50 18 -53 13 c-48 12 -58 11 -89
-4 -20 -10 -29 -12 -21 -4 6 7 12 17 12 22 0 12 -23 -14 -37 -43 -45 -93 -49
-118 -37 -280 6 -85 9 -157 7 -160 -3 -3 -10 2 -16 10 -7 9 -23 24 -37 34
l-25 18 25 -7 c17 -4 21 -3 11 3 -7 5 -11 15 -7 21 4 7 1 9 -8 5 -23 -9 -42 7
-22 18 18 10 22 28 5 28 -5 0 -7 -4 -4 -10 3 -5 -1 -10 -10 -10 -13 0 -14 4
-5 20 8 15 8 18 -3 14 -25 -9 -41 -78 -43 -189 -2 -60 0 -122 3 -138 l5 -27
209 0 c187 0 248 7 189 23 -11 3 -20 10 -20 16 0 18 18 13 42 -12 20 -19 35
-22 129 -25 103 -4 106 -3 122 21 17 27 14 39 -9 30 -8 -3 -14 -2 -14 1 0 4
14 12 30 17 35 13 41 34 8 25 -81 -21 -75 -22 -54 2 10 12 27 24 36 27 19 6
17 45 -2 45 -5 0 -6 5 -3 10 4 6 10 8 14 6 4 -3 7 11 7 29 0 20 -3 29 -8 22
-5 -9 -10 -9 -19 0 -8 8 -4 15 17 27 28 14 28 15 6 16 -13 0 -32 -5 -43 -10
-13 -7 -19 -7 -19 0 0 5 4 10 9 10 6 0 26 15 46 34 30 27 34 34 21 39 -23 9
-48 -3 -42 -19 3 -8 -1 -14 -9 -14 -8 0 -15 -4 -15 -10 0 -5 -10 -14 -21 -21
-28 -15 26 56 95 124 54 54 55 74 1 33 -45 -35 -45 -20 0 24 32 31 49 70 24
54 -6 -3 -15 -1 -19 6 -10 16 -50 3 -50 -16 0 -8 4 -13 9 -10 5 4 7 -3 4 -14
-3 -11 -9 -20 -14 -20 -5 0 -6 7 -3 15 4 8 1 15 -5 15 -7 0 -14 -7 -17 -15 -4
-8 -10 -15 -16 -15 -10 0 21 61 37 72 88 63 146 116 132 122 -9 5 -9 7 1 12
17 8 15 24 -3 24 -8 0 -15 4 -15 10 0 5 6 7 14 4 8 -3 17 0 22 7 4 8 3 10 -4
5 -7 -4 -17 -4 -23 0 -7 4 8 26 38 57 26 27 40 47 29 43 -14 -5 -17 -2 -12 9
7 18 -10 21 -17 3 -4 -10 -8 -9 -16 2 -6 8 -11 11 -11 6 0 -5 -7 -2 -16 5 -15
12 -16 8 -11 -49z m7 -76 c0 -2 -12 -11 -26 -21 -25 -16 -25 -16 -14 4 9 17
40 30 40 17z m-65 -46 c-3 -5 -12 -10 -18 -10 -7 0 -6 4 3 10 19 12 23 12 15
0z m-420 -10 c3 -5 2 -10 -4 -10 -5 0 -13 5 -16 10 -3 6 -2 10 4 10 5 0 13 -4
16 -10z m480 -19 c-3 -6 -11 -11 -16 -11 -5 0 -4 6 3 14 14 16 24 13 13 -3z
m-129 -68 c-10 -10 -19 5 -10 18 6 11 8 11 12 0 2 -7 1 -15 -2 -18z m54 17 c0
-5 -2 -10 -4 -10 -3 0 -8 5 -11 10 -3 6 -1 10 4 10 6 0 11 -4 11 -10z m-395
-110 c3 -6 -1 -7 -9 -4 -18 7 -21 14 -7 14 6 0 13 -4 16 -10z m50 -40 c3 -6
-4 -10 -17 -10 -18 0 -20 2 -8 10 19 12 18 12 25 0z m345 -110 c0 -5 -4 -10
-10 -10 -5 0 -10 5 -10 10 0 6 5 10 10 10 6 0 10 -4 10 -10z m-370 -24 c0 -2
-7 -7 -16 -10 -8 -3 -12 -2 -9 4 6 10 25 14 25 6z m180 -56 c0 -5 -7 -10 -15
-10 -8 0 -15 5 -15 10 0 6 7 10 15 10 8 0 15 -4 15 -10z m82 -22 c-7 -7 -12
-8 -12 -2 0 14 12 26 19 19 2 -3 -1 -11 -7 -17z m-262 -2 c0 -3 -4 -8 -10 -11
-5 -3 -10 -1 -10 4 0 6 5 11 10 11 6 0 10 -2 10 -4z m30 -26 c0 -5 -7 -10 -16
-10 -8 0 -12 5 -9 10 3 6 10 10 16 10 5 0 9 -4 9 -10z m310 0 c0 -5 -4 -10
-10 -10 -5 0 -10 5 -10 10 0 6 5 10 10 10 6 0 10 -4 10 -10z m-546 -16 c3 -8
2 -12 -4 -9 -6 3 -10 10 -10 16 0 14 7 11 14 -7z m212 -51 c-10 -10 -19 5 -10
18 6 11 8 11 12 0 2 -7 1 -15 -2 -18z m-200 -23 c0 -11 -4 -20 -8 -20 -10 0
-11 24 -1 33 9 9 9 10 9 -13z m350 -37 c-7 -7 -26 7 -26 19 0 6 6 6 15 -2 9
-7 13 -15 11 -17z"/>
<path d="M270 700 c-9 -6 -10 -10 -3 -10 6 0 15 5 18 10 8 12 4 12 -15 0z"/>
<path d="M428 613 c7 -3 16 -2 19 1 4 3 -2 6 -13 5 -11 0 -14 -3 -6 -6z"/>
<path d="M9120 540 c-6 -11 -7 -20 -2 -20 10 0 32 21 32 32 0 16 -19 8 -30
-12z"/>
<path d="M578 493 c7 -3 16 -2 19 1 4 3 -2 6 -13 5 -11 0 -14 -3 -6 -6z"/>
<path d="M530 476 c0 -2 7 -6 15 -10 8 -3 15 -1 15 4 0 6 -7 10 -15 10 -8 0
-15 -2 -15 -4z"/>
<path d="M8903 412 c-23 -15 -43 -30 -43 -34 0 -9 69 28 90 48 23 22 -1 15
-47 -14z"/>
<path d="M557 399 c7 -7 15 -10 18 -7 3 3 -2 9 -12 12 -14 6 -15 5 -6 -5z"/>
<path d="M530 380 c8 -5 20 -10 25 -10 6 0 3 5 -5 10 -8 5 -19 10 -25 10 -5 0
-3 -5 5 -10z"/>
<path d="M8775 354 l-30 -25 38 17 c20 10 37 21 37 26 0 14 -14 8 -45 -18z"/>
<path d="M510 339 c0 -5 5 -7 10 -4 6 3 10 8 10 11 0 2 -4 4 -10 4 -5 0 -10
-5 -10 -11z"/>
<path d="M8877 334 c-16 -9 -27 -18 -24 -20 3 -3 20 4 38 15 39 24 28 28 -14
5z"/>
<path d="M8687 316 c-53 -33 -56 -38 -8 -19 22 9 41 20 41 25 0 5 5 6 12 2 7
-4 8 -3 4 4 -9 15 -4 16 -49 -12z"/>
<path d="M8546 275 c-11 -8 -18 -17 -15 -19 2 -2 15 4 28 15 27 22 15 26 -13
4z"/>
<path d="M8367 245 c-19 -17 -22 -26 -14 -34 14 -14 27 -14 27 0 0 5 -4 7 -10
4 -5 -3 -10 -1 -10 4 0 6 10 11 22 11 12 0 18 3 15 7 -4 3 1 11 9 18 14 10 14
12 2 12 -8 0 -26 -10 -41 -22z"/>
<path d="M9105 249 c-16 -10 -26 -19 -22 -19 11 0 67 29 67 35 0 9 -15 4 -45
-16z"/>
<path d="M505 230 c-15 -6 -11 -8 17 -7 21 1 38 5 38 10 0 9 -29 8 -55 -3z"/>
<path d="M580 219 c0 -7 -8 -18 -17 -26 -10 -8 -4 -7 14 3 18 10 30 21 27 26
-8 12 -24 10 -24 -3z"/>
<path d="M31 204 c-19 -8 -32 -17 -29 -19 5 -5 68 23 68 31 0 5 0 5 -39 -12z"/>
<path d="M820 210 c0 -5 5 -10 10 -10 6 0 10 5 10 10 0 6 -4 10 -10 10 -5 0
-10 -4 -10 -10z"/>
<path d="M504 195 c-10 -8 -14 -14 -9 -14 6 0 19 6 29 14 11 8 15 15 10 15 -6
0 -19 -7 -30 -15z"/>
<path d="M8273 186 c-33 -21 -42 -36 -23 -36 6 0 10 5 10 10 0 6 15 8 35 6 19
-3 38 0 41 6 5 7 -2 9 -21 4 -25 -6 -27 -5 -15 9 20 24 8 25 -27 1z"/>
<path d="M8475 200 c-3 -6 1 -7 9 -4 18 7 21 14 7 14 -6 0 -13 -4 -16 -10z"/>
<path d="M8070 179 c0 -5 5 -7 10 -4 6 3 10 8 10 11 0 2 -4 4 -10 4 -5 0 -10
-5 -10 -11z"/>
<path d="M833 173 c-17 -6 -17 -33 0 -33 7 0 13 9 14 20 1 11 1 20 0 19 -1 0
-8 -3 -14 -6z"/>
<path d="M9666 165 c-11 -8 -15 -15 -10 -15 6 0 19 7 30 15 10 8 15 14 9 14
-5 0 -19 -6 -29 -14z"/>
<path d="M8404 128 l-19 -23 25 20 c14 11 27 21 29 22 2 2 0 3 -6 3 -5 0 -18
-10 -29 -22z"/>
<path d="M8130 106 c0 -2 7 -7 16 -10 8 -3 12 -2 9 4 -6 10 -25 14 -25 6z"/>
<path d="M8197 94 c-16 -9 -27 -17 -25 -20 6 -6 58 20 58 29 0 9 0 9 -33 -9z"/>
<path d="M8916 84 c-22 -22 -20 -25 9 -12 14 6 25 15 25 20 0 13 -17 9 -34 -8z"/>
<path d="M8100 80 c-8 -5 -10 -10 -5 -10 6 0 17 5 25 10 8 5 11 10 5 10 -5 0
-17 -5 -25 -10z"/>
<path d="M8111 44 c-19 -13 -31 -24 -28 -24 14 0 77 34 77 42 0 13 -12 8 -49
-18z"/>
<path d="M8934 55 c-10 -8 -14 -15 -8 -15 6 0 17 7 24 15 16 19 9 19 -16 0z"/>
<path d="M8236 45 c-11 -8 -16 -15 -10 -15 5 0 18 7 28 15 11 8 16 15 10 15
-5 0 -18 -7 -28 -15z"/>
<path d="M8848 33 c-16 -8 -28 -18 -28 -24 0 -12 14 -11 28 3 8 8 15 8 26 -1
10 -8 16 -9 21 -1 3 5 -1 10 -9 10 -10 0 -13 6 -10 15 7 17 8 17 -28 -2z"/>
<path d="M802 18 c5 -15 58 -24 58 -10 0 5 -10 12 -22 16 -34 9 -40 7 -36 -6z"/>
</g>
</svg>
